<svg xmlns="http://www.w3.org/2000/svg" viewBox="0 0 425.17 503.24"><defs><style>.cls-1{fill:#19191a;}.cls-2{fill:#474747;}.cls-3{fill:#3e3e3e;}.cls-4{fill:#1b1a1a;}.cls-5{fill:#2b2a2f;}.cls-6{fill:#323231;}.cls-7{fill:#575757;}.cls-8{fill:#616a71;}.cls-9{fill:#252e3e;}.cls-10{fill:#2d2d2d;}.cls-11{fill:#383838;}.cls-12{fill:#3b4f6e;}.cls-13{fill:#262626;}.cls-14{fill:#525252;}.cls-15{fill:#2c2c2b;}.cls-16{fill:#4a6185;}.cls-17{fill:#2f2f2f;}.cls-18{fill:#445675;}.cls-19{fill:#162335;}.cls-20{fill:#8397b8;}.cls-21{fill:#464750;}.cls-22{fill:#282828;}.cls-23{fill:#3b5071;}.cls-24{fill:#3c3c3c;}.cls-25{fill:#526482;}.cls-26{fill:#464646;}.cls-27{fill:#4c596b;}.cls-28{fill:#526585;}.cls-29{fill:#3b5577;}.cls-30{fill:#363636;}.cls-31{fill:#6b6b6b;}.cls-32{fill:#232323;}.cls-33{fill:#2d3a4f;}.cls-34{fill:#2c2c2c;}.cls-35{fill:#5c636b;}.cls-36{fill:#4a5f81;}.cls-37{fill:#161f2c;}.cls-38{fill:#585858;}.cls-39{fill:#838482;}.cls-40{fill:#495f7d;}.cls-41{fill:#4b688b;}.cls-42{fill:#8897b1;}.cls-43{fill:#cacaca;}.cls-44{fill:#3a3a3a;}.cls-45{fill:#4f4f4f;}.cls-46{fill:#2a364b;}.cls-47{fill:#bcbcbc;}.cls-48{fill:#50688d;}.cls-49{fill:#16253c;}.cls-50{fill:#32465f;}.cls-51{fill:#4a4a4a;}.cls-52{fill:#8a8a8a;}.cls-53{fill:#70829d;}.cls-54{fill:#d7d7d5;}.cls-55{fill:#7f868c;}.cls-56{fill:#757b84;}.cls-57{fill:#c5c5c5;}.cls-58{fill:#919191;}.cls-59{fill:#8f9194;}.cls-60{fill:#c1c1c1;}.cls-61{fill:#525e6f;}.cls-62{fill:#646464;}.cls-63{fill:#495261;}.cls-64{fill:#a7a7a5;}.cls-65{fill:#181818;}.cls-66{fill:#7687a3;}.cls-67{fill:#575f6d;}.cls-68{fill:#484848;}.cls-69{fill:#6e6e6c;}.cls-70{fill:#444;}.cls-71{fill:#414141;}.cls-72{fill:#7f7f7d;}.cls-73{fill:#555554;}.cls-74{fill:#80807f;}.cls-75{fill:#383837;}.cls-76{fill:#767675;}.cls-77{fill:#8d8d8c;}.cls-78{fill:#878787;}.cls-79{fill:#616161;}.cls-80{fill:#777;}.cls-81{fill:#1c1c1c;}.cls-82{fill:#797979;}.cls-83{fill:#3a5174;}.cls-84{fill:#cdcdcb;}.cls-85{fill:#c8c8c8;}.cls-86{fill:#577298;}.cls-87{fill:#111f34;}.cls-88{fill:#112744;}.cls-89{fill:#1b2737;}.cls-90{fill:#4d6a92;}.cls-91{fill:#879eb5;}.cls-92{fill:#656d7d;}.cls-93{fill:#6b83a8;}.cls-94{fill:#636363;}.cls-95{fill:#4d4d4d;}.cls-96{fill:#393939;}.cls-97{fill:#919290;}.cls-98{fill:#202020;}.cls-99{fill:#353535;}.cls-100{fill:#7288aa;}.cls-101{fill:#374e71;}.cls-102{fill:#899fc0;}.cls-103{fill:#95a9c6;}.cls-104{fill:#3e3e3d;}.cls-105{fill:#4e4e4e;}.cls-106{fill:#5e7495;}.cls-107{fill:#48628b;}.cls-108{fill:#384f73;}.cls-109{fill:#4b6080;}.cls-110{fill:#6e7a92;}.cls-111{fill:#627898;}.cls-112{fill:#8f9fb8;}.cls-113{fill:#697c9e;}.cls-114{fill:#8295b3;}.cls-115{fill:#222d44;}.cls-116{fill:#122543;}.cls-117{fill:#456389;}.cls-118{fill:#526e91;}.cls-119{fill:#696969;}.cls-120{fill:#181d25;}.cls-121{fill:#6c7483;}.cls-122{fill:#252524;}.cls-123{fill:#303030;}.cls-124{fill:#494a48;}.cls-125{fill:#2e2e2e;}.cls-126{fill:#424242;}.cls-127{fill:#626262;}.cls-128{fill:#676767;}.cls-129{fill:#8f8f8f;}.cls-130{fill:#656565;}.cls-131{fill:#3f3f3f;}.cls-132{fill:#151515;}.cls-133{fill:#242424;}.cls-134{fill:#767674;}.cls-135{fill:#767676;}.cls-136{fill:#545454;}.cls-137{fill:#70706f;}.cls-138{fill:#898989;}.cls-139{fill:#595959;}.cls-140{fill:#979796;}.cls-141{fill:#a0a09e;}.cls-142{fill:#4c4d4c;}.cls-143{fill:#404040;}.cls-144{fill:#a1a1a0;}.cls-145{fill:#949593;}.cls-146{fill:#8a8b89;}.cls-147{fill:#313230;}.cls-148{fill:#525251;}.cls-149{fill:#454545;}.cls-150{fill:#4c4c4c;}.cls-151{fill:#3d3d3d;}.cls-152{fill:#313131;}.cls-153{fill:#5f5f5f;}.cls-154{fill:#343434;}.cls-155{fill:#6e85a7;}.cls-156{fill:#6a82a5;}.cls-157{fill:#1f3452;}.cls-158{fill:#2b2b2b;}.cls-159{fill:#989898;}.cls-160{fill:#737473;}.cls-161{fill:#414140;}.cls-162{fill:#6d6d6d;}.cls-163{fill:#272727;}.cls-164{fill:#6b6c6b;}.cls-165{fill:#797978;}.cls-166{fill:#91918d;}</style></defs><g id="Layer_2" data-name="Layer 2"><g id="Layer_1-2" data-name="Layer 1"><path class="cls-1" d="M149.34,503.24H5.64c-3.7-1.89-4.07-4.75-3.22-8.6,2.15-9.72,3.86-19.54,4-29.53.05-4.14,1.25-8.3,3.72-11C17,446.66,16.54,437.8,16,428.91c-.37-6-1.63-11.8,1.14-17.72,1.43-3.05,0-6.71-.69-10.06a312.07,312.07,0,0,1,14-45.77c1.1-2.73,1.93-5.51,5.27-6.27,2.87-.66,6.65,4,8.71-1.53,4.57-3.17,6.94-2.49,8.54,3.1,3.47,12.09,7,24.2,6.58,37,.26,7.22-.13,14.45.49,21.7.93,11,2.56,13.11,13.4,15.19,3.58.92,5.73-1.82,8.39-3.29,3.38-.67,6.16-2.54,8.89-4.51,6.23-12.28,12.93-24.42,15.79-38,.8-3.83,1.35-7.67,2.72-11.36,3.2-8.63,6.2-17.3,5-26.75.84-4.53,3.77-8.07,6-11.85,3-4.95,3.65-9.69,1-14.86-1.2-6,3.73-9.69,5.37-14.62,5.29-11.91,12.78-22.65,18.43-34.38,4.58-4.31,6-11.22,11.82-14.5,4.21-2,5.46-5.24,4-9.55a26.8,26.8,0,0,1-1.16-9.94c-.16-4.2,1.53-7.25,5.74-8.27a8.12,8.12,0,0,1,9.47,4c2.36,3.91,5.77,6.8,9,9.87s5.75,6.26,5.76,10.8c0,4.1,2.45,6.09,5.9,5.79,8.09-.69,14.18,3.3,20,7.82,4.12,3.2,5.71,1.62,5.89-2.56.27-6.22,3.68-10.13,8.51-13.28,2.75-.41,5.52,0,8.27-.19,2.65-1.61,7.92,2.18,8.3-4.31s-.38-7.47-8.24-7.41c-4.2-.11-8.46.13-12.21-2.34-5.63-3.24-5.65-7.67-2.45-12.57,2.13-3.26,4.21-6.62,7.53-8.89,2.65-1.36,5.56-1.45,8.43-1.74,4.16-1.32,8.06-4.71,12.78-1.7,2.61,3.14,5.8,5.85,6.5,10.32.59,3.75,3.9,4.59,7,5.27,4.54,1,7.84,6.59,12.52,5,4.46-1.49,5.63-7.27,8.86-10.65,2.94-3.06,4.92-6.73,7-10.38,1.71-3.09,3.88-6.12,7.93-4.65,3.84,1.4,2.87,5.25,2.71,8.21-.32,5.73-3.65,10.9-3.36,16.8-3.27,6.24-1.07,13.5-3.69,19.86-1.63,3.82-4.09,7.31-4.58,11.59-1.33,2.9-2.45,5.94-5.06,8a6.94,6.94,0,0,0-1.58,4.36,14.41,14.41,0,0,0,1.27,4.58c2.55,3.51,5.5,6.87,6.57,11.14.89,3.52,3.48,4.81,6.25,6.18,2.09,2.43,5.8,3,7.21,6.2,2.4,5,1.68,9.66-.31,14.95-3.75,9.93-4.58,20.76-8.21,30.8-1,2.7-1.51,5.56-3.62,7.69-7,2.52-7.94,1.5-9.45-10.29,1.6,11.14,1.6,11.14,8.19,11.32,6.73-7.05,6.66-16.71,9.43-25.24.93-2.86,2-6,1.87-9.17a4.52,4.52,0,0,1,.23-1.55c.49-1.46,1.39-4.17,2.48-3.4,5.93,4.22,6.85-13.31,13.72-3,6.45,7.95,9.38,17.17,11.16,27.18,1.18,6.57,3.28,13.05,4.4,19.69-.11,6.12,2.54,11.69,3.6,17.57.4,2.2,1.67,2.34,3.42,1.68a5.58,5.58,0,0,1,5.59.09c2.26,1.8,1.88,4.35,1.93,6.77.63,5.06-2.23,9.61-2.12,14.6,0,3.32.63,6.6.71,9.82,2.82-.17,5.91-2.09,8.2,1.19,1.35,2.41.3,4.37-1.15,6.25-3.38,6.31-9.32,11.08-10.93,18.47,5.19-6.17,6.53-14.71,12.41-20.46a73.48,73.48,0,0,1,37.9-14.86c4.14-.43,7.41,2.33,9.13,6.29,2,4.67,2.39,9.15-2.09,12.77a38.23,38.23,0,0,0-15.73,17.86c-7.16,12.41-17.59,21.79-28.51,30.7a34.18,34.18,0,0,0-4.24,3.36c-3.54,2.45-6,6.06-9.1,8.92-1.44.86-2.61,1.91-2.67,3.76,0,1.33.24,2.65.24,4-1.44,6-2,12.3-5.46,17.69H307.25c-2.37-1.53-5.4-2.48-5.31-6.14,1.84-5.74-2-10.77-2.08-16.27-4.05-12-.78-22.65,5.63-32.79,1.52-3.21,3.58-6.21,4-9.86.71-7-6.42-9.13-8.85-14.16-6-5.15-12.75-7.85-20.77-5.93-1.34,5.46,1.5,8.9,5.76,11.43,3.72,2.21,6,5,4.78,9.52a53,53,0,0,1-7.24,11.36c-2.07,3.41-5.38,3.13-8.67,3-7-.54-6.5-5.71-6.56-10.54-1.24-5.38-.67-10.87-.63-16.31,0-5-1.05-7-6.81-5.86-8.12,1.54-16.5,2.19-24.4-1.87-2.84-1.46-5.44-3-6.76-6.11.58-14.87-3.83-29.4-2.92-44.26.5-8,2.59-10.18,9.92-11.06a32.33,32.33,0,0,1,5.11-.22c3.88,2,2.16,4.51-.05,6-5.37,3.57-4.95,8.06-2.89,13.08,1.79,3.14,5,1.57,7.49,2.16,2.81-.49,3.08-2.2,2.4-4.58-1.66-5.75.42-10.64,3.6-15.14-5.61.82-10.78-2.49-16.36-1.31a185.77,185.77,0,0,1-31.1.87c-3.45-.24-7.7.18-8-5.17,2.34-2.86,5.63-2.1,8.64-2.21,9.28-.37,18.59.61,27.85-.62,10.05,1.93,20.18-1.66,30.23.39,5.42,1,10.81,2,12.17,8.71-.07,8.61,1.43,17.19,1,25.82.49-8.65-1-17.25-1-25.89-1.27-4.92-4.35-7.66-9.5-7.91a24.88,24.88,0,0,0-12.27-1.24c-8.49,1.07-17,0-25.47.69-3.87-.2-7.81.6-11.6-.75-4.11-5,.22-7.77,3.53-8.74,7.19-2.09,10.55-6.22,12-13.47,1-5,4.79-9.24,6.41-14.31,3.27-10.26.26-14.87-10.55-15.52-2.6-.15-5.21.82-7.84.13a101.18,101.18,0,0,0-13.89-3c-11-6.36-22.72-11.59-31.57-21.2-1.93-2.1-4.62-5.67-6.62.22-3.11,17.2-6.6,34.32,4.8,50.21,4.89,6.81,9.67,13.6,16.5,18.66,1.94,1.44,3.45,3.19,3.55,5.75-1.28,3,4.07,3.47,2.63,6.61-8.59,6-7.92,14.94-7.86,23.85.06,9.39.38,18.78-.91,28.17-1.55,11.26.94,22.36,2.38,33.49.78,18.5-.71,37,.93,55.52a8,8,0,0,1-2.86,6.92H152.49c-3.1-10.27-1.74-20.72-.86-31.07.85-10.12,2.92-20.12,4.06-30.22,2-11.6,2.92-23.32,4.08-35,1.47-12.38,2.19-24.78.64-37.2-1.12-9-.53-18.29-4.12-25.14,2.24,9.17,3.4,20.2,4.89,31.19.23,9.36-.16,18.69-.84,28-1.81,11.49-2.13,23.15-4.07,34.63-2.61,19.56-6.54,39-5.39,58.92C151,499.44,150.87,501.54,149.34,503.24Z"/><path class="cls-2" d="M187.23,503.24c-2.81-20.94-1.25-42-1.69-63-1.53-9.91-.54-19.87-.53-29.8,0-5.16,3.24-8.11,8.58-8.36,2.1-.1,4.26-.34,6.26.29,8.19,2.6,14.31-.1,19.1-6.9,2.27-3.22,5.44-5.37,9.45-3.93,3.66,1.32,2,5,2.22,7.63.42,6.07-.13,11.82-3.35,17.41-4.09,7.08-.52,14.38,1.2,21.35,1.12,4.49,1.87,8.53-.09,13-3.35,7.6,1.42,14.38,3.1,21.3a52.46,52.46,0,0,0,5.8,13.69c4.22,7.25,2.87,12.13-4.25,17.38Z"/><path class="cls-3" d="M233,503.24c4-7.11,3.85-14.12-.94-20.75-4.92-6.81-5.37-15.2-8.37-22.7-.72-1.81-1-4.54-.16-6.11,5.1-9.3.68-17.75-2.11-26.21-1.8-5.45.54-9.63,3.64-12.92,4.26-4.52,5.26-9.46,4.76-15.15-.17-2,.66-4.72-1.9-5.48s-4.48,1.2-5.75,3.26c-2.82,4.58-5.9,8.58-11.78,9.51-3.88.62-7.29,1.3-11.38-.4-7.85-3.25-13.22.89-13.35,9.48-.13,8.15-.1,16.3-.15,24.45-.44-1.22-1.25-2.44-1.26-3.67-.13-24.38-.07-48.76-.29-73.13-.07-7.83,7-7.1,11-10a1.16,1.16,0,0,1,1.8-.07c8.15,2.83,16.56.73,24.82,1.3,5.42.37,11-1.07,16.19,1.66,1.07.6,1.05,1.16-.07,1.67-6.83,1.6-7.92,6.82-7.73,12.62.47,14.14,1.1,28.27,1.66,42.4,1.42,6.38,7.89,7.19,12,10.47,10.51,8.41,11.79,12,6.32,24.42-2,4.52-2.76,9.48-6,13.54-1.94,2.42-.11,5.55.3,8.34-.27,3.62-4,6.67-1.76,10.71.76,2.44,3.52,2.93,4.81,4.86,4,5.67.2,10.43-1.78,15.4-1,1.79-3.28,1.27-4.61,2.48Z"/><path class="cls-4" d="M395.46,476.15c10-1.33,17.68,2,22.36,11.23a.87.87,0,0,1,1.42.21c7.69,6,2.78,10.78-1.45,15.65H343.57c-2.48-2.89-.69-5.23,1-7.58,1.17-1.64,2.92-2.65,4.33-4a87.77,87.77,0,0,1,21.89-11.15c7-1.54,14.41-1.35,21-4.86C392.92,475,394.28,475.56,395.46,476.15Z"/><path class="cls-5" d="M.9,503.24q.06-5.5.13-11c-2.79-8.28,1-16.41.6-24.73-.36-6.93,1.15-14.08,3-20.91a66,66,0,0,0,2.51-23.22A23.42,23.42,0,0,1,8.85,411.8c4-3.46,3.89-10.82,10.92-11.33,0,13.55,0,27.1.08,40.65,0,4.69-1.09,8.79-4.52,12.12A20.87,20.87,0,0,0,8.74,471c.65,7.69-1.65,15-3.4,22.41-.81,3.4-1.57,6.64.3,9.88Z"/><path class="cls-6" d="M304.12,496.91l3.13,6.33H280.4c-1.15-1.33-3.06-2.38-3-4.26.17-5.74-3.84-9-7-12.86-.25-2.69,1.55-4,3.4-5.34.6-.65,1.36-1.26.39-2.25-1.44-1.25-3.3-2-3.92-4,.66-6,5.21-8.05,10-7.51,8.25,1,11.89-2.69,13-10.18a15.68,15.68,0,0,1,1.4-5.41,6.1,6.1,0,0,1,3.78-2.86c3.4-1.77,6.8-3.75,10.48-.58-6.91,10.12-8.38,21.3-6.4,33.14-2.59,3.71-6.13,3.41-9.89,2.42-1.21-.31-2.76-.75-3.45.78-.62,1.37.36,2.55,1.34,3.43A16.18,16.18,0,0,0,298,491.8C301,492.41,303.62,493.36,304.12,496.91Z"/><path class="cls-7" d="M270.92,485.82c6.69-.32,9.64,3,9.43,9.55-.08,2.62,0,5.25,0,7.87H240.93l3-3.3c4.61-8.94,13.35-12,21.87-15.37C267.59,483.89,269.39,484.7,270.92,485.82Z"/><path class="cls-8" d="M157.06,441.51c-1.61,18-5.76,35.69-4.84,53.88.13,2.62.18,5.24.27,7.85h-3.15c-1.73-22,1.7-43.6,6.09-65.07C157,438.79,156.07,440.62,157.06,441.51Z"/><path class="cls-9" d="M346.75,497l-3.18,6.28h-4.74c-2.78-6.94,2.94-12.48,3.14-18.93a2.16,2.16,0,0,1,2-.28C348.38,487.61,343,493.24,346.75,497Z"/><path class="cls-10" d="M215.9,348.26l12.79.37c-.89,3.56-3.86,2.81-6.26,2.88-5.38.15-10.76,0-16.14.05-4.77-.67-9.9,1.58-14.36-1.75-10.63-7.15-18-17.41-25.63-27.35a10.43,10.43,0,0,1-2.26-4.07c-2.72-15.35-4-30.7,1-45.89,3.35.13,4.82,2.67,6.63,5,8.3,10.48,14.55,22.46,23.52,32.46,2.23,2.48,2.52,5.63,2.5,8.88-.06,7,2.79,10,11.4,12.47,5.51,1.61,10.32.2,13-4.67,2.78-5.17,2.54-10.44-2.48-15-5.21-4.7-7.12-12.16-13.08-16.41-1-.7-1.07-2.34-.35-3.64,5-.23,9.11,3.81,14.23,3.1,17.23,3.07,21.73,12.18,14.12,28.6-1.1,2.37-2.52,4.75-3,7.23-1,5.55-4.34,8.4-9.18,10.7C219.61,342.55,214.54,342.74,215.9,348.26Z"/><path class="cls-11" d="M206.17,291.6c9.78,4.15,12.72,14.53,19.38,21.54,4.5,4.74,2.25,14.74-2.82,19-7.13,6-14.35,3.74-21.22,0-5.7-3.08-10.51-7-7.06-15,1.35-3.1-2.09-4.95-3.79-7.2-9.12-12.06-18.56-23.91-25.58-37.41.52-2.69-1.33-6.53,1.69-7.85,2.75-1.21,5.49,1.65,7.19,3.67C182.79,278.8,195.4,283.91,206.17,291.6Z"/><path class="cls-12" d="M356.72,414.86c.75-2,1.35-4.09.81-6.29.8-2.63,3.56-2.58,5.29-3.88,1.42-.72,1.68-1.45.16-2.49a5.43,5.43,0,0,1-2.46-5.05c.77-3.28,3.47-5.18,5.38-7.64,3-1.58,5.34-4.89,9.43-3.64,1.47,1.22,1.41,3.23,2.24,4.84,8.14-6.66,10-15.49,4.5-21.23-1.88-3.74-.64-7.49-.15-11.3.52-4,1.34-8.33-3-11.14a7.87,7.87,0,0,1-3-3.38c-.29-3.15,1.57-5.44,3.13-7.85,3.32-2.92,7-2.75,10.89-1.44a12.13,12.13,0,0,1,7.85,7.26c.69,2.13,2.45,3.65,3.31,5.68,1.26,4,6.19,3.48,8.22,6.57,1.38,2.3,2.51,4.8,1.93,7.45-3.75,17.27,1.17,33.58,5.38,50,1.35,5.23.87,9.37-5.15,11-3.06-.61-4.27.8-5.76,3.59-2.23,4.19-3.16,10.47-10.27,9.82-3.41-4.42.58-7.75,1.68-11.52.91-3.09,3.78-5,4.73-8,4-3.79,3.26-7.85.72-12s-6.24-3.09-9.78-2.11c-11.5,3.16-23.42,5.28-33.27,12.75A1.87,1.87,0,0,1,356.72,414.86Z"/><path class="cls-13" d="M233.13,210.89c-2.49,2.94-5.16,5.74-7.43,8.84s-2.84,6.18,1,8.62c-.24,2.24-2.25,5.26,2.86,4.51,3.44-.51,7.48,1.59,9.69-2.9,2.35,0,4.93-.62,7,.15,3,1.12,13-.42,3.76,7.34-.74.63-.74,2.4-.73,3.64.08,8.42-1,9.14-10,6.24-8.72-5.16-17.46-4.48-26.14-.14,2.48,1.32,4.36-.49,6.47-1.37,3.72-1.54,7.46-2.78,10.31,1.58-5.71,4.5-4.33,11.48-6,17.38-.62,2.16-.12,5.09-3.25,5.66-2.93.54-3.75-1.92-5.27-3.78-4.72-5.78-9.88-10.73-18.51-9.56-6.17.84-9.31-1.74-9.94-8.81-.95-10.62-10.49-15.92-17.38-22.3-3.21-3-7.4.26-7.6,5.49-4.11.25-3.71-2.91-3.87-5.37-.26-3.92.09-7.86-.19-11.78-.18-2.61.49-4.75,3-5.78,3-1.22,5.15.48,6.76,2.63,3.74,5,6.95,10.43,11.46,14.91a38.23,38.23,0,0,0,4.7,4,15.4,15.4,0,0,1,1.74,1.59c1.51,2.38,2.38,5.13,4,7.45.82,1.17,1.67,3,3.47.93,1.31-2.39.72-4.93.7-7.41a7.68,7.68,0,0,1,1.89-4.24c5.6-3.64,10.82-7.73,18.19-7.89,5.61-.12,9.14-3.39,8.15-9.82-.37-2.39-.06-4.71,2.36-6.15C229.72,203.28,233.32,204.44,233.13,210.89Z"/><path class="cls-3" d="M242.5,469.93c-1.95-1.67-2.85-3.6-1.9-6.21,2.31-6.34,4.06-12.93,6.92-19,3.41-7.23,2.94-12.1-3.75-16.53-4.2-2.79-7.5-6.41-11-9.84-1.53-1.48-3-3.09-1-5.33,10,6.52,24.47,6.76,39.19.16v28.38a33.27,33.27,0,0,1-15.12,16c-3.9,2-5.12,5.59-5.88,9.52-.7,2-1.81,3.69-4.06,4.24A3.53,3.53,0,0,1,242.5,469.93Z"/><path class="cls-14" d="M245.44,470.31a6.66,6.66,0,0,0,1.72-5.07c3.8-7.95,16.43-14.79,24.8-13.47,1.25.2,2.56.36,3.57-.76A8.4,8.4,0,0,0,282,448c5,.82,5.32-6.47,10.21-5.79,3.16,2.28,10,1.68,7,8.82l-3.28,2.09c-2.68,1.55-5.67,2.57-8,4.72-2.08,1-3.31,3.46-6,3.49a3.59,3.59,0,0,0,2-.54c2.38-1.58,4.47-3.6,7.15-4.73a7.66,7.66,0,0,1,6.66,1.4c1,.92,1.93,2.94.67,3.06-4,.36-4.11,2.37-4.07,5.65,0,4.43-1.73,6.75-7,4.72-6.1-2.36-11.81-.8-16.52,3.88-5.83,5.81-13.14,9.2-20.51,12.46a4,4,0,0,1-4.37-1c-2.63-.28-5.17-.73-6.74-3.23A90.27,90.27,0,0,0,245.44,470.31Z"/><path class="cls-15" d="M299.26,224.82c-1.57-7.43,5.65-14.16,1.47-23.54A127,127,0,0,1,287,222.44q-3,3.67-5.74,7.5c-3.1,4.28-6,6.07-8.92-.2-1-2.2-2.81-4.24-5.1-4.68-9.64-1.83-12.32-9.59-15.29-17.2.28-4.5-6.13-7.87-2.18-13,3.93-2.24,9.05,1.64,12.63-2.48,3.17-.48,5.91.07,7.52,3.23.42,1.82-.8,3-1.65,4.36-1.75,2.88-3.49,5.72-3.19,9.37.27,3.19.2,6.69,4.24,7.27s7.34-1,8.67-5c1.45-4.4,2-9.12,4.81-13a2.9,2.9,0,0,1,1.35-.75c11.11-.72,16.15-7.81,18.8-17.62.64-2.34,1.23-5.51,5.14-4a5.73,5.73,0,0,1,1.41,2.22c-.21,15.95,2.45,32.36-7.69,46.66A2,2,0,0,1,299.26,224.82Z"/><path class="cls-16" d="M124.34,313.39c3.69,7.05-.38,12.77-3.19,18.72-1.28,2.72-3.84,4.92-3.49,8.32-2.17,7.07-1.52,14.84-5.38,21.48-1.36,1.62-1.81,3.78-3.17,5.4-2.64,3.15-5.79,5.7-10.09,4.61-4.12-1.05-4.74-4.91-5.8-8.51-2.9-9.87-5.48-19.82-8.22-29.72,2.92-3.8,5.78-1.54,7.77.7,3.07,3.47,6.53,6.94,6.79,10.52-1.3-5-6.12-10.14-7-16.9-.4-3.09-1.75-6.11.16-9.15,1.81-2.17,4-2.35,6.41-1.21,3.31,1.78,4.78,5.11,6.48,8.14,1.36,2.43,2.89,4.08,5.8,3.85,1.27-.48,1.85-1.66,2.65-2.62,2.35-2.13,4.49-4.23,4.89-7.74C119.29,316.25,120.87,313.82,124.34,313.39Z"/><path class="cls-17" d="M184.14,233c-7.78-4-12.09-11.18-16.86-18-1.31-1.86-2.34-4.93-5-4.24-2.87.74-1.94,4-1.83,6.14.25,4.87-1.3,10,1.49,14.56.75,4.08,1.29,8.21,2.3,12.23,1.31,5.24.05,8.71-5.62,9.8-1.64-15.7-8-30.51-8.55-46.42,0-.79,0-1.58,0-2.37-.56-5.32-.21-10.81-3-15.68-2.27-2.23-5.11-4.08-5.13-7.79a17.52,17.52,0,0,1,4.2-12c2-2.36,3.59-5,3.51-8.25,2-3.34-.26-7.28,1.49-10.66,4.89-4,6.77.91,9.54,3.2a16.62,16.62,0,0,1,1.41,7.42c-.8,5.16-1.7,10.12-5.21,14.5s-.82,11.67,5.26,16.71a19.68,19.68,0,0,1,3.8,5.94c.63,10.76,8.69,17,14.86,24.38C183.3,225.54,187.44,228.1,184.14,233Z"/><path class="cls-18" d="M56.23,389.35c-.16-13.56-3.94-26.44-7.34-39.39-.61-2.32-1.56-4.13-2.27,0-6.23-.61-5.33-5.56-5.2-9.41s3.31-5.1,6.85-4.49,6.13-1.63,8.29-3.61,3.75-3.59,6.75-2.5A5.7,5.7,0,0,1,66,332.79c.45,2.29,1.44,4.51.83,6.92-2.59,5.92-2.8,12.41-2.45,18.49.91,15.42.13,30.82.48,46.23a16.32,16.32,0,0,1-.37,4.68c-.54,1.92-1.7,3.39-3.88,3.05-1.85-.28-2.22-1.84-2.28-3.55C58.1,402.14,56.86,395.77,56.23,389.35Z"/><path class="cls-19" d="M56.23,389.35l4.27,21.59c2.44-3.49,1.77-6.39,1.7-9-.35-14.89.91-29.74-1.12-44.71A34.2,34.2,0,0,1,64,339a4.47,4.47,0,0,1,3.84,3.42c.72,4.61,3.55,8.68,3.51,13.5-3.09,11.83-.5,23.92-1.54,35.83.36,5.33-1.67,10.5-1.12,15.84-2,5.41-1.45,10,4,13.25,2.69,1.62,3,4,.9,6.5a4.67,4.67,0,0,1-1.53-.28c-3.29-2-7.82,2.53-9.46-.07a39.27,39.27,0,0,1-5.29-15.15C56.27,404.44,56.53,396.85,56.23,389.35Z"/><path class="cls-20" d="M124.34,313.39c-2.11,5.67-3.93,11.49-8.12,16.12-3.39-1.28-3.07-4.5-3.78-7.2-.34-1.29-.91-2.67-2.59-2.11-1.45.48-1.66,1.94-1.52,3.29.45,4.49,5,6.6,6.22,10.67-4,3.46-6.65.81-8.78-2.26-2.59-3.76-4.77-7.82-7.13-11.75-2.56-4.38-6-8.65-1.78-13.91,8.76-3.12,18.35-3.75,26.51-8.82a5.56,5.56,0,0,1,5.3-.18,1.83,1.83,0,0,1,.56,2.23C129.62,304.82,123.91,308,124.34,313.39Z"/><path class="cls-21" d="M19.77,400.47c-3.91,2.78-3.23,8.66-7.54,11.17-5.38-4-2.45-9.37-1.64-13.8,3.58-19.7,10.73-38.37,17.77-57,1.38-3.63,3.43-6.6,8.06-6,3,1.5,4,4.25,4.46,7.29-.29,3.1-.44,6.28-3.81,7.9-7.85,13-11,27.82-15.49,42.08C20.72,394.81,20.36,397.68,19.77,400.47Z"/><path class="cls-22" d="M215.9,348.26c-1.73-.14-4.33.79-4.83-1.28-.64-2.68,2.46-2.91,4.12-3.82,15.09-8.32,20.27-19.7,18.09-36.68-1.07-8.36-7.78-8.79-12.88-11.78,4.5-.41,8.81.74,13.19,1.44,10.14,1.6,13.37,6.82,9.22,16.47-3.48,8.1-9.21,15.11-10.89,24.15-.58,3.12-4.39,4.21-7.39,5.25C221,343.23,217.66,344.63,215.9,348.26Z"/><path class="cls-23" d="M65.69,408.41c.32-5.28-.82-10.7,1.46-15.81,1.26-.59,2.23,0,3.13.79,1.5,2.05,2.6,4.22,5.48,5.19,8.64,2.89,8.58,3.06,11.7,12.46,3.38-2.87,3.39-7,5-10.31,1.4-2.86,2.19-7,7.05-4.4-2.33,7.95.36,17.74-8.54,23.27L83,424.26c-7.44,4-10.07-2.6-13.43-6.59C67.49,415.19,66.52,411.71,65.69,408.41Z"/><path class="cls-24" d="M299.19,451c-.21-5.05-6.42-4.19-7.87-8a2.31,2.31,0,0,1,0-2.08c3.89-4.18-1.07-5.72-2.64-8-1.46-2.14-5.55-2.63-4.36-6.43,1.11-3.51,4.58-2.74,7.22-3.39a45.71,45.71,0,0,1,4.5-1.17,6.19,6.19,0,0,1,2.27.1c7.5,3.26,9.84,11.31,15.29,16.47-.82,3.54-1.45,7.17-4.7,9.5Z"/><path class="cls-25" d="M37.07,350q.13-3.93.29-7.86c.13-13.16,11-16.46,19.84-21.6,3.29,1.88,4,5.56,5.89,8.44a2.7,2.7,0,0,1-.57,2c-3.16.73-4.67,3.68-5.91,5.87-3.33,5.9-6.3,9-11.47.16a16.8,16.8,0,0,0,1.48,13c-.2,2.41,2,5.82-2.1,6.71C39.32,357.8,38.31,353.66,37.07,350Z"/><path class="cls-26" d="M250.43,195.13c-.21,3.24,1.42,5.33,4,7,1.5.94,3.41,2.19,2.38,4.3-.94,1.93-3.2,1.2-4.94,1.44-4.75-1.26-8.35,1.93-12.44,3.22-2.56-1.44-2.59-3.93-2.72-6.4,3.5-7.06.16-14.23.21-21.35,0-3-4.69-2.18-5.15-5.23-.24-5.08,2.57-8,7.17-8.67s8.32,1.71,9.73,6.13C250.73,181.88,253.66,188.28,250.43,195.13Z"/><path class="cls-27" d="M294.49,351.24c6.8-14.71,9.29-30.57,12.14-46.31.39-2.16-.74-4.6-1.16-6.91-.34-2.9.54-5.18,3.32-6.49l.21.24c2.06-1.49,3.22.23,4.57,1.28a4.6,4.6,0,0,1,1.23,2.77,10.15,10.15,0,0,1-.79,3.33.62.62,0,0,0,.63.53,6.7,6.7,0,0,1,2.9-1.23c3.16.3,4.95,2.18,5.93,5a9.25,9.25,0,0,1,0,2.52c-.74,2-1.68,3.88-3.86,4.72-2.63-2.43-3.66-1.54-3,1.63.81,3.68,2.61,7.19,1.85,11.33-5.36-1.1-6.12-6.44-10-9.39-2.61,9.86-5,19.36-7.68,28.75-1.13,4-2.11,8.2-6.14,10.55A1.64,1.64,0,0,1,294.49,351.24Z"/><path class="cls-28" d="M319.64,310.7l1.89-4.93c4.23,2.78,9.34,4.29,12.48,8.66,1.65,6.89,6.29,13,5.12,20.65-.36,2.32,2.23,3.32,3,5.18,1.42,4.05-1.4,7.62-1.25,11.53-1.44,2.45-.89,6.59-5.44,6.38C331,342.08,328.81,325.22,319.64,310.7Z"/><path class="cls-29" d="M348.59,383.25c.56-2.14,1.11-4.28,1.67-6.42-1.87-3-.61-5.71.39-8.74,2-6.17,5-12.33,2.72-19.18-.52-4.53,1.69-6.82,6-7.39,4.44.51,9.62,4,12.05-3.36.42-1.28,2.51-1.68,4.14-1.65a3,3,0,0,1,1.86,1.12c1.63,2.85-3.53,5.32-.46,8.26.51,2.84-.76,5.2-2.5,7.11-4.47,4.9-7.28,10.72-9.87,16.69a76.47,76.47,0,0,0-6,9.86C356.41,383.34,353.59,386.57,348.59,383.25Z"/><path class="cls-30" d="M230,247.4c-5.78-1.19-10.15,2.14-14.51,4.91-3.49,2.21-5.89,1.64-7.86-1.63-2.25-3.72-.2-6.48,3-7.46,6.84-2.1,13.7-5.9,21.15-1.74a7.08,7.08,0,0,0,6.84.23c2.8-1.41,6-2.8,6.93,1.35,1.23,5.31-3.51,3.69-6.21,4.27Z"/><path class="cls-31" d="M240.9,204.63q-.72,3.23-1.42,6.44c-2.18,2.25-4.27,1-6.35-.18-1.84-4.25-5.29-5.09-9.43-4.44-2.15,3.05-4.73,4.41-8.26,2.15-3.77-5-.66-8.67,2.66-11.87,1.56-1.52,3.78-2.53,5.57-4,2-1.2,3.93-2.68,6.3-3.12,4.84-.91,8.33.55,9.26,5.8C239.77,198.52,239.7,201.69,240.9,204.63Z"/><path class="cls-32" d="M304.12,496.91a35.85,35.85,0,0,0-4.46-1.38c-11.35-2-12.71-3.45-16.08-18.19,6.32,2.07,12.42,4,18.89,3.75C305.15,486.14,307.39,491.24,304.12,496.91Z"/><path class="cls-33" d="M91,419.6c6-6.83,6.31-15.51,7.7-23.84-2-1.65-1.81-3.71-1.14-5.87s3.8-3.81,2.84-6.18c-3-7.45.56-11.8,6.27-15.59,2.5-1.65,3.32-4.61,4.72-7.1,4-6.29,1.94-14.42,6.3-20.59.54,6.69-1,13.11-2.94,19.38-2.29,7.5-5.94,14.62-4.94,22.86.29,2.39-.91,4.71-2.47,6.52-5.34,6.16-8.55,13-8.86,21.37A9.09,9.09,0,0,1,91,419.6Z"/><path class="cls-34" d="M253.59,358.15c1.2,1.4,6.18,1.8,1,4.8-3.83,2.22-4.68,6-3.27,10.06,3,8.6,3,8.59-5.72,8.52-2.44-2.58-1-6.9-4.11-9.1,0,.07-.7-.1-.7-.1s-.71,0-.69.09c-2.12,1.49-1,5.07-3.9,6-4.65-8.83-1.69-15.31,6.26-20.24A13.29,13.29,0,0,1,253.59,358.15Z"/><path class="cls-35" d="M160.29,373.84c-5.84-13.61-7.55-28-7-42.81,4.37,11.79,13.32,22.41,8.38,36.53C160.4,369.46,162.16,372.06,160.29,373.84Z"/><path class="cls-36" d="M401.85,416.19c2.7,7.91-4.76,12.61-6.08,19.24,1.35,2.91-.19,5.39-1.14,8-5.12,4.62-8.6,12.15-17.57,10.11-2.64-3.61,1.34-4.73,2.56-6.95,2.32-4.23,8.59-6.56,6.33-13C388.28,425.05,392.8,418.54,401.85,416.19Z"/><path class="cls-37" d="M348.54,408.85c.77-4.07-4.9-7-2-11.44,4.46-5.29,6.25-12.36,11.65-17.1,1.92-1.68,3.06-4.26,6-4.69a6.14,6.14,0,0,1,5.95,3.67c.65,1.63.18,3.19-.29,4.75-1.93,6.32-8.73,9.57-10.2,16.19C356.64,404,354.09,408.38,348.54,408.85Z"/><path class="cls-38" d="M296.53,424c-2.87,2.64-9.19.08-9.7,4.31-.39,3.17,5.53,4.09,7.88,6.86,1.63,1.92,4.51,4.07,3.21,6.61s-4.16.72-6.29-.12c-1.65-.28-2.36-1.55-3-2.87-.05-4.24-2.75-6.31-6.13-8.22-5.62-3.19-8.09-7.88-5.51-14.37C284.29,416.8,291.79,416.92,296.53,424Z"/><path class="cls-39" d="M182.58,474.86a83.18,83.18,0,0,0,.43,19.63c.24,1.71,1.43,4-.92,4.81-1.9.64-3.46-1.22-4.27-2.78-3.57-6.88-10.5-12.8-6.61-21.93C175,476.85,178.84,472.6,182.58,474.86Z"/><path class="cls-40" d="M356.72,414.86l2.8-.07c-2,4.07-4.34,7.49-4.3,12.83.06,6.33-6.74,9.11-11.25,12.19C338.15,426.31,350.73,422.34,356.72,414.86Z"/><path class="cls-41" d="M364.07,376.76C360,385,351.6,390,348,398.6a.78.78,0,0,1-.7.07,10.54,10.54,0,0,1-.83-1.26c1.11-4.66,3.66-9.1,2.08-14.16,5.42,0,6.34-4.65,8.49-8.1,1.49-2.39,1.35-6.27,5.5-6.4a2.94,2.94,0,0,1,2.49-.41C369,371.65,367.65,374.34,364.07,376.76Z"/><path class="cls-42" d="M386,433.56c1.43-.23,3-1.56,4.24,0,1.5,2,.48,4-.95,5.54-4.16,4.54-8.41,9-12.62,13.45.5,4.92-3.16,7-6.38,9.38-3,1.5-6,3.13-8.91,4.92-2.17,1.34-2.38,1-3.28-2.64C368.25,454.84,379.29,446.19,386,433.56Z"/><path class="cls-43" d="M296.53,424c-6.23.76-10.66-5.22-17-4.46-1.82.22-2-2-2.59-3.34.1-1.95.77-4.2,3-3.56,8,2.34,17.14,2,22.8,9.79-.46,3.87-2.7,2.64-4.85,1.7l-.67-.15Z"/><path class="cls-22" d="M275.53,451c-7.15,3.21-15.18,4.14-21.86,8.63-2.42,1.63-4.89,3.09-6.51,5.6-1.8-.48-2.13-1.66-.83-2.78,8.13-7,16.35-13.95,24.54-20.9C271.63,445.1,269,450.33,275.53,451Z"/><path class="cls-44" d="M239.29,230c1.86,3.62,1.35,6-3.27,6.23-7.44.41-14.56-1.46-22.71-2.42,4.3-4.37,9.7-2.74,13.43-5.42Z"/><path class="cls-45" d="M294.49,351.24c.07.78.15,1.55.22,2.33-9.18,2.25-9.21-6.1-12-10.83-1.17-2-.6-5.07-.61-7.66,0-2,.86-3.59,3.15-3.69a3.63,3.63,0,0,1,4,3A28.26,28.26,0,0,1,289.5,346C288.54,350.4,290.4,351.82,294.49,351.24Z"/><path class="cls-46" d="M65.69,408.41a11,11,0,0,1,7.3,8.38c1.27,5.3,4.44,8,10,7.47-2.59,2.73-5.89,3.31-9.44,3.08-.22-1.56-.42-3.67-2-3.9C60.67,421.83,63.78,414.92,65.69,408.41Z"/><path class="cls-47" d="M206.25,350.06c7.46-.68,15,.31,22.44-1.43,12.86,3.34,26.06-2.11,38.91,1.49.3,3-1.5,2.16-3.1,1.67l-31.13.07c-8,1.06-16,.26-24,.46C207.85,352.35,206.09,352.45,206.25,350.06Z"/><path class="cls-48" d="M343.66,484.27l-1.69,0c-1-.85-2.59-1.37-1.54-3.2a7.63,7.63,0,0,1,4.74-1.67c5.22,2.86,10.33,4.19,16.32,1.46,2.77-1.26,6.76-1.78,9.17,1.91-6.87,3.66-14.2,6.48-20.51,11.16-2.81,1.33-4.6.33-4.45-2.66A12.69,12.69,0,0,0,343.66,484.27Z"/><path class="cls-49" d="M354.72,350.16l4.55-3.92c-3.1,11-5,21.11-9,30.59l-4.68,1.74a3.44,3.44,0,0,1-1.93-1.6C344.54,366.88,345.87,357,354.72,350.16Z"/><path class="cls-50" d="M345.05,376.7c.17.62.35,1.24.52,1.87-.95,1.67-.88,4.58-3.5,4.35-2-.17-2.34-2.58-2.69-4.3-1.37-6.81-2.61-13.63-3.9-20.45l3.2-6.74c3,2.11,4.17,5.23,4.92,8.6C344.9,365.51,342.1,371.35,345.05,376.7Z"/><path class="cls-51" d="M242.8,368.74c4.22,3.54,5,7.83,2.81,12.79-3.54.2-6.89-.22-9.4-3.13,0-3.1,0-6.22.11-9.32.14-2.92.77-5.48,4.65-3.36C240.78,367.21,241,368.45,242.8,368.74Z"/><path class="cls-52" d="M206.25,350.06c8.89,2.83,18.15.14,27.12,1.8-12.13,2-24.42,0-36.56,1.51l-1.8.07-7.58-.57c.84-2.63,3.11-2.12,4.5-3.06Z"/><path class="cls-53" d="M348.54,408.85q4.56-5,9.13-10.09a5.56,5.56,0,0,1,2,1c.88,2.74,7.48,1.95,4.41,7.13l-6.51,1.7c-5.61-1.14-7.24,4.91-11.51,6.55C345.51,412.32,348.4,411.14,348.54,408.85Z"/><path class="cls-54" d="M182.58,474.86c-6.51,6.2-8.83,6.14-11.37-.27,2.24-3.92,6-4.56,9.91-4.09C183.48,470.79,182.93,473.1,182.58,474.86Z"/><path class="cls-55" d="M157.06,441.51c-.54-1.11-1.09-2.22-1.63-3.34l3.78-34.31c2.95.15,1.76,2,1.37,3.44Q158.82,424.4,157.06,441.51Z"/><path class="cls-30" d="M275.93,357.77c2.82,10.52.64,21.16,0,31.81q-.84-15.15-1.7-30.29C274.78,358.78,274.83,357.68,275.93,357.77Z"/><path class="cls-56" d="M160.58,407.3c-.46-1.15-.92-2.29-1.37-3.44l1.08-30c.47-2.1,1-4.19,1.42-6.28C162.26,380.83,163.38,394.12,160.58,407.3Z"/><path class="cls-57" d="M288.61,438.8c2.53-.65,3,.91,3,2.87a1.63,1.63,0,0,0-.31,1.3c-1.87,3.95-2.67,9.92-9.3,5Z"/><path class="cls-58" d="M297.88,424.14c1.76-.15,3.83.57,4.85-1.7,3.83,5.18,9.36,9.22,10.83,16-3.17.36-4.7-1.91-5.79-4.15A23.77,23.77,0,0,0,297.88,424.14Z"/><path class="cls-59" d="M308.79,291.53c-1.71,1.86-.09,5.42-3.32,6.49-2.1-1.5-4.78-2.21-6.22-4.6L295.49,289C300.63,289.56,304.52,292,308.79,291.53Z"/><path class="cls-36" d="M358.05,464.25c1.59,3.29,2.86.4,3.92-.37,2.25-1.64,3.73-4.3,6.68-5,3,4.09-1.36,7-1.69,10.54a6.38,6.38,0,0,1-2.83,2.28,8.71,8.71,0,0,1-7.28-.84c-1.51-.87-2.88-1.81-2.17-3.91Z"/><path class="cls-9" d="M345.32,481.4l-4.89-.29c1-2,1.77-4.2,4.37-4.72a8.28,8.28,0,0,1,3.17-1.24c2.95,1.81,8.62,0,8.31,6.17C352.64,484.56,349,482.52,345.32,481.4Z"/><path class="cls-60" d="M253.59,358.15H242.47l-4.72-.16.07-1.67c8.06,0,16.14-1.81,25,.2C259.54,358.89,256.33,357.27,253.59,358.15Z"/><path class="cls-61" d="M348.25,476.23l-3.45.16a40.6,40.6,0,0,1,9.88-9.47l3.44,1.78C357.75,475,353.82,476.71,348.25,476.23Z"/><path class="cls-62" d="M275.93,357.77l-1.73,1.52c-.94-5.47-6-5.56-9.7-7.5l3.1-1.67C272.33,350.54,274.38,353.89,275.93,357.77Z"/><path class="cls-63" d="M35.26,335.5c1.48-2.74,4.81-4.16,5.4-7.54,2,.39,3-1.19,4.31-2,.92-2.07,2.22-3.52,4.76-3l3.44-2.66L67.38,311a8.22,8.22,0,0,1,3.69-4.07,25.67,25.67,0,0,1,4.22-1.87,24.83,24.83,0,0,1,3.51-.82c2.7.7,5.86.21,7.7,3.06a2.78,2.78,0,0,1-.2,2.34C79,315.14,69.79,317,62.36,322.23c-1.3.91-3.06.26-4.49-.52C49,326.48,40.7,331.85,37.35,342.17,37.22,339.77,37.18,337.34,35.26,335.5Z"/><path class="cls-64" d="M49.73,322.9l-4.76,3-1.44-1.22q-.78-3.94-1.58-7.89c1.92,1.82,3.2,4.52,6.32,4.73Z"/><path class="cls-65" d="M409.8,422.85c9.65,7,5.59,17.45,6.5,26.63a38.61,38.61,0,0,1-1.69,12.68c1.37,7-4.51,6.76-8.42,8.5-4.12.29-8.25.2-12.38.41-4.3-1.44-8.6-1.39-13.13-.83-4.94.61-10.35,2.54-14.79-1.85-3.8-4.54,2.38-6.2,2.76-9.54l8-6.26c6.74-1.5,10.35-7.35,15.44-11.15,4.62-5.35,11.71-8.71,12.8-16.9C405.17,422.24,407.49,421.54,409.8,422.85Z"/><path class="cls-66" d="M394.52,468.15l12,.08c1.91-.37,4.48-1.73,4.92,1.4.35,2.54-1.95,3.27-4.21,3.54-3.79.44-7.89-1-11.31,1.77a2.15,2.15,0,0,0-.46,1.21c-7.35,5.65-16.19,5.74-24.8,6.66a25.06,25.06,0,0,0-12.09,1.54c-5.05,1.88-9.54,1.19-13.25-3l11.18-1.68c1.94-4.39,6-3.45,9.52-3.7,5.2-.38,10.44.16,15.57-1.42,3.4-1,6.24-2.57,8.09-5.68A4.65,4.65,0,0,1,394.52,468.15Z"/><path class="cls-67" d="M395.92,474.94c2.57-4.78,7.39-2.34,11.09-3.5,1.07-.33,3-.2,2.2-2.11-.25-.63-1.76-.75-2.69-1.1,2.77-1.93,6.72-2.28,8.09-6.07,2.28-1.2,4.57-2,5.76,1.27.94,2.54-.14,4.41-2.2,6.13C411.59,475,403.85,475.31,395.92,474.94Z"/><path class="cls-68" d="M419.24,487.59c-.47-.08-.94-.15-1.42-.21-1.44-3.76.54-5.45,3.88-5.77a3.06,3.06,0,0,1,3.46,3.36C424.88,489.28,421.55,487.44,419.24,487.59Z"/><path class="cls-69" d="M160.15,154.35c-1.39-1.29-1.68-5-4.33-3.49-3.44,6.51-6.54,1.06-9.75-.46a9.69,9.69,0,0,1-3.18-9.45c1.5-8.76.08-15-7-17.67-.76-.28-1.12-1.41-1.38-2.43-8.29-7.78-5.4-19.5-6-30,0-11.5,1.77-22.88,1.27-34.43-.24-5.76,2.62-8.72,6.45-9.4,3.05-.55,4.8-1.89,6.07-5.9,1.12-3.52,4.36-7.39,6.81-4.69,2.28,2.53,3.74,8.21-.33,12,1,3.37.18,6.66-1.7,8.35-4.89,4.36-5,10.5-4.44,17.11a12.4,12.4,0,0,1,0,2.28c-.65,4.59-2.2,8.82-3,13.35,5.25-1.45,3.89,6.76,7,8.55,1.05.62,1.7,2.14,2.12,3.67,1.59,9,1.3,18.52,3.85,27.3,1.84,6.19,1.31,14.4,7.89,16.61,3.1,1.08,5.8,2.6,5.18,8C164.07,156.61,162.14,155.92,160.15,154.35Z"/><path class="cls-70" d="M157.05,53.1a10.13,10.13,0,0,0,.32-1.45c.22-2.86.14-5.85,3-7.67,2.69-.34,5.78-.14,5.57-4.28-.07-4.72,1.31-8.25,6.84-8.38,2.52-1.54,5.37.73,7.91-.66l.34.15c2.44-3.5,6.84-5,9.39-2.66,5.23,4.72,12.52,4.3,17.69,8.54a15.61,15.61,0,0,0,1.78,1.47c2.94,2.07,5.51,4.79,3.28,8.31s-6,3.19-9.4,1c-.62-.8.16.33-.47-.52-.12.13.08.17.11.33.48,2.06-.6,3.38-2,4.55A10.22,10.22,0,0,0,199.1,54c-6.31,8.89-15.65,8.19-21.78-1.55-.87-.35-1.31.38-1.87.84-1.8,1.51-3.94,2.61-4.73,5-.4,1.23-.84,2.9-1.9,3.31-6.74,2.6-11.94,7.78-18.46,10.73-4.49-3.28-3.12-6.91-.62-10.59C152.08,58.78,153.94,55.42,157.05,53.1Z"/><path class="cls-17" d="M206.18,38.72c-3-1.43-6-3.21-9.59-1.51-1.45.68-3.63.57-3.94-1.3-1.31-7.84-7.59-3.8-11.6-5.1-.7-3.87,1.6-7.27,1.73-11l1.37-1.13c4.82-.4,6.13-6.69,11.2-6.65l4.49-3.18a4.34,4.34,0,0,1,4.52,3c1.16,3.27-1.91,5.67-1.93,9.13,5.3-2.43,10.62-3.66,15.14.7,3,2.85,1.91,6.1-.66,8.91-2.26,1.28-6.56,1.25-3.72,5.81C211.42,38.93,209.38,40.61,206.18,38.72Z"/><path class="cls-71" d="M131.93,75c-1.93-11.28,4.65-19,11.27-26.6,3.53,1.65,9-1.53,10.81,4.41,1.28,5.94-3.33,6.7-7,8.15,1.28,4-.5,8.89,3.45,12.18,2.13,4.68.38,9.09-.91,13.54-1.21,1.57-2.47,3.08-4.55,3.54-7.29-.61-7.21-7.38-7.6-11.56C136.89,73.59,134,75.7,131.93,75Z"/><path class="cls-72" d="M160.52,45.34c-1.05,2.1-.88,4.82-3.15,6.31-3.1-5.12,1-8.63,2.77-12.7,1.71-3.88,7.55-8.9-2.35-10.28-1.45-.2-1.88-1.68-1.67-3.09.36-2.35,2.29-3.36,4.06-4.42a2.7,2.7,0,0,1,4,.92c1.18,2,1.88,4.32,4.08,5.55,6.21-2,7.16,1.35,6.44,6.38-5.47-1.12-5.22,3.32-6.3,6.47C166,42.36,163.81,44.78,160.52,45.34Z"/><path class="cls-73" d="M174.74,34c-1.22-3.06-2.86-5.7-6.44-6.37,6.15-7.26,8.32,1.85,12.41,3C183.11,39.61,175.3,30.33,174.74,34Z"/><path class="cls-74" d="M145.17,59.63c3-2.17,7-3.06,8.84-6.78l3,.25c0,3.83-2.46,6.44-4.7,9.14C148.91,64.27,146.22,64.19,145.17,59.63Z"/><path class="cls-75" d="M310.38,29.29c6.8,7.53,10.87,16.59,14.48,25.91,1.2,3.09,2.38,6.89-1.33,8.26-4,1.5-2.83-3.21-3.93-5.14-1.86-3.3-5.43-6-3.9-10.62A1.48,1.48,0,0,0,314,45.78c-2.09.28-2.77,2.22-3.85,3.66-1.38.53-2.23-.22-3-1.21a5.68,5.68,0,0,1-.41-4.42,11.29,11.29,0,0,1,.95-2.06,9.75,9.75,0,0,0-1.33,2.8c-.92,2.43-3.36,3.57-4.71,5.62-3.07,3.41,1.52,9-3.44,11.92a8.79,8.79,0,0,1-8.06-1.93c-2.49-2.21-4.78-1.17-7.22-.28-3.09.06-6.76,1-7.95-3.07-1-3.54,3.68-3.64,4.28-5.35,2.16-6.12,10-6.65,11.67-12.88a13.8,13.8,0,0,1,2.89-3.6,9.34,9.34,0,0,1,1.68-1.39c1.53-.81,2.56-1.86,1.78-3.76a6.4,6.4,0,0,0-2-2c-3.8-1.43-6.8-5-11.43-4.19A5.43,5.43,0,0,1,280.6,22c-1.26-3.92-7.05-6.41-3.74-11.78,4.37-3.27,8.68-3.36,12.94.2Z"/><path class="cls-76" d="M236.18,2.36c7.35-1.6,14.68,2,22,.08,1.55,2.66-.32,4.27-1.82,6-2,1.09-4.58,1.87-2.51,5C258.54,17,264,15.55,269.17,16a11.76,11.76,0,0,1,8.45,5.12,4.6,4.6,0,0,1,.53,2.06c-.39,2-2.26,3.23-2.5,5.3a5.56,5.56,0,0,1-1,1.89,6.34,6.34,0,0,1-4,1.78,5.26,5.26,0,0,1-2.15-.64c-6.61-5.86-9.27-5.13-12.64,3.5a9.24,9.24,0,0,1-4,2.51,5.74,5.74,0,0,1-5.48-1.65c-2.26-1.83,0-5.92-3.59-7.1C233,27.31,232.16,25.84,237,18.7c2.69-1.62,2.76-4,1.81-6.63C238.63,8.64,236,5.89,236.18,2.36Z"/><path class="cls-77" d="M236.18,2.36c2.82,2.36,11.09,1.9,4.64,9-.7,3.34-3.1,5-6.06,6.05-10,1.83-11.16,1.3-14.43-6.63-.42-3,1.27-4.95,3.31-6.73C227.83,3.58,232.24,4.67,236.18,2.36Z"/><path class="cls-78" d="M274.17.87,275.75.5c1.08-.18,2,.4,2.92.73C281,2,285-.87,285.45,3.7c.35,3.69-3.39,3.92-5.95,4.88a26.5,26.5,0,0,1-3.24,1c-4.42,2.1-8.92,3.86-14,3.41-.78-.22-1.54-.48-2.3-.76-5.13-3.67-1-6.29,1-9.15C265.34,2,269.81,1.75,274.17.87Z"/><path class="cls-73" d="M203,11.94l-3.11-3.1c3.34-9.54,5.23-10,14.23-3.31,1.22,4.48-2.2,6.13-5,8.17C206.65,14.45,204.69,13.57,203,11.94Z"/><path class="cls-79" d="M278.45,6.8l6-3.17C281,2.39,277.27,4,275.75.5c10.05-1.56,13.4.38,14.13,8.2A12,12,0,0,1,278.45,6.8Z"/><path class="cls-80" d="M209.3,11.88c.18-3.18,3.76-3.8,4.77-6.35l9.57-1.45q-.79,3-1.6,6.1c-1.06,1.81-3.1,1.47-4.69,2.15C214.59,13.59,211.83,14.81,209.3,11.88Z"/><path class="cls-73" d="M195.35,12A80,80,0,0,0,189,19.49c-2.53,3.76-3.4.27-4.85-.83C187.47,15.76,188.42,8.85,195.35,12Z"/><path class="cls-79" d="M274.17.87c-3.84,2.39-8.28,2.52-12.55,3.3-1.56,1.27-2.3,3.56-4.7,3.8a2.31,2.31,0,0,1-1.62-1.13l2.91-4.4A30.37,30.37,0,0,1,274.17.87Z"/><path class="cls-73" d="M278.45,6.8l11.43,1.9c0,.57-.05,1.15-.08,1.73-4.31-.38-8.62-.77-12.64,1.43a2.92,2.92,0,0,1-2,.86,2.87,2.87,0,0,1-1.81-1.16c-.88-2.34.65-3.41,2.32-4.4Z"/><path class="cls-81" d="M246,486.18c8.48-3.4,14.61-11.94,24.88-11.45,2.15.4,4.37-1,6.48.26,1.73,3.12,2.18,6.22-.1,9.3-2.24-.05-4.49-.17-6.31,1.53-9.09,4.5-18.65,8.12-27,14.12-2.72-.77-1.51-2.31-.35-3.2C247.44,493.82,245.25,489.7,246,486.18Z"/><path class="cls-82" d="M245.44,470.31c3,8.36,2.13,10.16-6.21,12.64-2.81-5.32-1.76-9.67,3.27-13Z"/><path class="cls-3" d="M244.53,435.86a2,2,0,0,1-2.07,1.67,1.83,1.83,0,0,1-2-1.78c0-1.21,1-1.68,2-1.66A1.8,1.8,0,0,1,244.53,435.86Z"/><path class="cls-83" d="M343.66,484.27c5,1.32,2.72,7.54,6.49,9.7l-3.4,3C338.33,494.53,345,488.42,343.66,484.27Z"/><path class="cls-84" d="M297.75,457.42,291.46,459c-3.4,1.45-4.91,0-5.11-3.37,2.53-3.31,5.2-6.07,9.56-2.56C296.52,454.53,297.14,456,297.75,457.42Z"/><path class="cls-85" d="M277.23,484.29l.1-9.3C282.57,478.15,282.26,481.24,277.23,484.29Z"/><path class="cls-86" d="M367.42,383.34l1.35-3.29c-1.32-7,2.33-12.81,5.11-18.6a14.93,14.93,0,0,0,1.28-10.35c.68-2.68,1.44-5.3,4.73-5.87,1.62-.9,1.33-4.63,4.29-3.29,2.11,1,1.05,3.15.84,4.87-.92,7.36.91,15-1.93,22.17,0,.35,0,.71,0,1.07a7.82,7.82,0,0,0-.11,6.08c.18,5.58-1.52,9.7-7.9,10.14-2.71,1.38-4.33,4.4-7.53,5C364.55,388.69,370.81,385.93,367.42,383.34Z"/><path class="cls-87" d="M375.09,386.27c2.26-3.49,5.38-6.49,6.14-10.84-1.78-2.84.74-4.45,1.86-6.45h0c6.22.52,8.21,3.89,6.18,9.6-1.22,3.42-2.84,6.7-4.28,10-2.76,6.4-7,9.44-14.22,6.23C370.66,391.3,375.43,390,375.09,386.27Z"/><path class="cls-88" d="M379.89,345.23l-3.47,6.19c0,9.06-4.7,15.43-12.61,17.08-.41.07-.82.16-1.23.25,1.07-6.36,5.14-11,8.86-15.93,1.71-2.26,3.31-4.58,3.78-7.48-.79-1.82.06-2,1.58-1.62Z"/><path class="cls-89" d="M409.8,422.85c-1.67.71-3.79,1.47-4,3.31-.89,8.54-7.93,11.32-13.76,15.28l3.71-6c4.33-2.86,6.34-7.16,8.1-11.88.84-2.25,1-7.38,6.07-4.13C409.9,420.56,409.85,421.71,409.8,422.85Z"/><path class="cls-90" d="M364,406.87c-.44-3.72-5.64-2.57-6.24-6.12,1.34-1.46,1.63-4.42,4.75-3.31.65,2.39,2.48,3,4.66,3.17,2.36.19,5.15.66,5.06,3.5-.12,3.92-3.76,2.24-5.95,2.78A8.72,8.72,0,0,1,364,406.87Z"/><path class="cls-91" d="M362.55,397.44l-4.75,3.31c0-.67-.09-1.33-.13-2l9.75-15.42c8.37,2.51-.55,5.31.13,8Z"/><path class="cls-92" d="M379.92,331.51l1.56-.59c4.17.22,7.1,2,8.07,6.34-3.17-1.75-6.29-1-9.41.17-1.06.34-2.12.62-3.12-.16l-.29-.24C374,333,376.61,332.06,379.92,331.51Z"/><path class="cls-93" d="M377,337.27l3.12.16c0,2.68-1.94,4.34-3.34,6.29l-1.58,1.62C372.33,341.87,377,340.1,377,337.27Z"/><path class="cls-94" d="M158.25,154.35c2.4-.32,4.92-.16,6.92-1.9,4.52-.14,3.74,3.51,4,6,.5,4.8,2.11,8.95,5.69,12.25,2.28,3.66,2.06,7.86,2.58,11.89.83,5.1,4.1,7.45,8.92,8.72,4.52,1.18,9.47,1.13,13.44,4.15a57.82,57.82,0,0,1,9.29,13.62c2.51,5,2.51,9.67-2.79,13.09-2.74,2.54-6.45,4-8.27,7.58-.5,1.09-1,2.18-1.48,3.26-.9,2.41-1.4,5.25-5,4.81a5.78,5.78,0,0,1-5-4.39c-2.71-8.83-9.23-14.95-15.34-21.24-3.67-3.77-4.08-9.78-9.09-12.46-.57-2.07-1.13-4.14-1.7-6.21-2.91-6.69-7.07-13-2.86-20.91,1.66-3.1-.22-7.14,1-10.64Z"/><path class="cls-95" d="M162.13,199.75a96.36,96.36,0,0,1,25.42,30.8c2.16,4.09,4.29,7.88,9,2.48.05,3.16.09,6.32.14,9.48-2.42,3.82-4.77,3.31-7.19,0-2.16-3-3.25-6.51-5.39-9.47h0c-.94-6.2-6.08-9.44-9.7-13.75C169.46,213.31,164.66,207.24,162.13,199.75Z"/><path class="cls-96" d="M198,229.77c.08-4.36,3.16-6.24,6.52-7.88,7.16-1.63,8.58-7.57,10.12-13.43l.92-.62,8.1-1.39c4.91,7.32,1.24,15.5-8.46,16.57C208.61,223.75,203.35,226.47,198,229.77Z"/><path class="cls-17" d="M184.12,233c2.73,1.45,3.52,4.33,5,6.73,1.78,2.95,4,4.81,7.61,2.77-.45,2.41-1.34,4.87-4,5.17-3,.34-3.44-2.72-4.4-4.68C186.74,239.76,185.5,236.35,184.12,233Z"/><path class="cls-97" d="M286.35,455.64c.92,2.31,3.14,2.65,5.11,3.37-3.61,3.26-8.2,2.86-12.54,3.28-2.28.22-4.2-.39-4.47-3.13-.14-1.31-.11-2.82,1.18-3.47,2.43-1.23,3,1.18,4.08,2.44C284.1,463.1,284,456.11,286.35,455.64Z"/><path class="cls-98" d="M174.88,183.79q-1-6.18-1.93-12.36c-2.51-4.05-3.26-8.79-5-13.14-2.14-5.29.31-8.78,6.1-9.07,6.76-.33,13.55-.54,20.32-.69a138.9,138.9,0,0,0,21.1.42c7.4-.59,13,3.26,18.34,7.58,2.42,1,4.6.91,6.27-1.48,3-2.64,6-5.17,9.71-6.65,1.73-.69,3.8-2,5.24-1,9.52,6.93,20.46,2.35,30.59,4.1a16.26,16.26,0,0,0,12.25,1c5.21-1.52,9.73-.32,14.28,1.94,5.29,3,4.09,7.57,2.91,12.14-1.62,4-2.95,8.37-8,9.54a29,29,0,0,0-1.64,4.38c-2.48,11.94-8.85,19.42-21.88,19.39-7.19,5.18-13.54,4.62-17.39-1.54l3.23-1.69c2.53-4.29,6.89-3.2,10.71-3.66,16.14.66,26.24-14,19.52-28.4a14.43,14.43,0,0,1,1.2,14.28c-1.52,3.63-4.82,5.09-7.62,3.3-8.36-5.34-16.71-1.68-25.08-1a11.29,11.29,0,0,1-4.66-.6c-3.89-1.21-4.77.23-3.87,3.87s3.06,6.82,1.82,10.7c-3.69,5.18-7.32,2.27-10.95-.09-2.36-4.43-2.89-9.31-3.71-14.16-.64-3.78-1.4-8.41-6.06-8.93s-6.47,3.38-7.63,7.3c2.43,4.08.91,7.38-2.28,10.09-1.95,1.66-3.92,3.27-5.79,5-3.28,2.81-6.12,3.1-8.11-1.44-.87-3.19,1.35-5.55,2.21-8.28,1.72-3.8,3.24-7.71,5.63-11.17,1.23-2.21,3.26-4.22,1.4-7.87-3.66,4.66-7,9.45-13.4,9.61-2.95.2-5.64-.89-8.24-1.95-5.29-2.18-7.85-5.79-5.17-11.61.16-.75.82-1.94.54-2.19-4.25-3.72-9.53-3-14.48-2.68-3.66.25-4.88,3.44-5.35,6.81s.3,6.82-.33,10.2c-1.08,2.28-.67,4.79-1.18,7.16C177.82,182.67,177.17,184.29,174.88,183.79Z"/><path class="cls-99" d="M261.38,195.22c-6.53-6.06-6.63-13.73-5.75-22.37,4.6,1,7.41,5.64,12.13,4.92,3.4,2.18,7.11,1,10.59.64,4.44-.5,8.46-.67,10.34,4.29,1.77,4.71.12,8.59-3.53,11.78a27.88,27.88,0,0,1-3.19,2.21H269.36C267,194.79,264.13,195.19,261.38,195.22Z"/><path class="cls-44" d="M266.13,198.38c5.59,2.85,11.61.84,17.39,1.54-.95,8,.66,17.26-10.14,20.48-7.24,2.15-11.88-.87-11.82-8.47C261.59,207.06,259.37,201.1,266.13,198.38Z"/><path class="cls-100" d="M62.52,331a10,10,0,0,0-.06-1.55c-3.23-6.77,2.13-8.64,6.4-10.84,5.88-3,12.31-5.08,17.34-9.65l-.16-.15c3.47-3,7-5.74,11.28-1.24,1.41,4.09,1.26,8.35,1.33,12.58-1.51-.86-3-1.65-4.6-.18-5.15,2.17-1,9.31-6.17,11.5a7.15,7.15,0,0,1-2.11.22c-4.35-.24-8,2.23-12.06,3.16-.71.08-1.43.17-2.14.27-3.16,1.12-5.79.55-7.69-2.38Z"/><path class="cls-101" d="M111.36,361c-7.2,8.7-7.41,20-11,30A20.16,20.16,0,0,1,90,376.79c-2.44-13.15-7.24-25.72-9.46-38.91-.18-3.81-1.4-8.49,5.38-6.63l.32-.31c.43.29.59.59.47.91s-.24.5-.38.5A297,297,0,0,1,96.1,364.2c1.66,6.35,5.32,7.26,10.09,2.6C108,365,109.65,363,111.36,361Z"/><path class="cls-102" d="M86.36,332.35a8.35,8.35,0,0,1-.09-1.41c1.81-2.26,1.4-5,1.51-7.57.2-4.72,2.57-5.23,6.27-3.4,2.8,8.72,4.85,17.75,9.54,25.74,1.49,2.56,3.66,4.61,1.28,7.68-.87,1.13-2,2.11-3.27,1.26-2.36-1.56-5.58-2.94-5.57-6.17C96,341,90.5,337.16,86.36,332.35Z"/><path class="cls-103" d="M114.55,334.16c-8.73-2.33-12.93-9.49-9.27-15.83,1.49-2.58,3.43-4.87,6.76-4.16,3,.64,3.76,3.36,4,6,.23,3.1.16,6.22.22,9.32C116.06,331.2,115.9,332.9,114.55,334.16Z"/><path class="cls-104" d="M141.65,190.3q-1.77-4.62-3.55-9.23c-4-4.42-6-9-1.63-14.4.67-6.52-1.79-13.9,5.14-18.69,3.71.61,6.24,5.68,10.86,2.88.89,3.66,2,7.29,1.52,11.13-7.84,1.48-12.15,10.07-9.45,18.84.48,3,3.62,4,4.77,6.45C148.41,192.47,146.23,194.42,141.65,190.3Z"/><path class="cls-105" d="M144.54,180.83c-3.51-2.22-3.27-5.64-2.71-9a34.7,34.7,0,0,1,2-8.26c1-2.29-1.9-6,1.6-6.77,3.89-.9,6.81,1.58,8.51,5.21.38,3.93-2.19,6.26-4.7,8.58C146.29,173.35,144.11,176.47,144.54,180.83Z"/><path class="cls-3" d="M158.55,162q.94,15.78,1.88,31.55c-9-5.68-10.55-12.43-4.6-21.09C158.06,169.2,156.16,165.08,158.55,162Z"/><path class="cls-105" d="M141.65,190.3c3.58,1.6,5.31-1.49,7.66-3,4.74,5.11,2.58,11.48,3.16,17.36C147.09,201.2,143.25,196.6,141.65,190.3Z"/><path class="cls-106" d="M63.88,332.74c1.94.65,3.66,1.14,5.15-1.16,1.3-2,2.37-.8,3,.84a51.57,51.57,0,0,0,1.44,5.32c.94,2.44.81,4.79-1.42,6.35-2.81,2-4.89.57-6.46-2-.52-1-1-2.06-1.58-3.08C64,336.91,63.92,334.82,63.88,332.74Z"/><path class="cls-107" d="M65.59,342.08c3.9,1.64,6.84,1.92,5.37-3.87A6.14,6.14,0,0,1,72,332.42v.08c3.54,1.89,8.63.25,11,4.84,2.62,8.66,6.21,17.16,7.6,26,1.57,10,5.92,18.65,9.73,27.65-1.41,1.28-1.61,3-1.68,4.75-4.34,5.19-3.28,12.66-7.56,17.86-1.6,1.95-2.72,5.16-5.85,4.29-2.8-.78-2.28-3.85-2.2-6.1.26-6.84-2.5-10.12-9.71-9.84-5.49.21-6.71-3.05-4.6-7.81,1.8-4.33,3-8.08.34-13.15s-.19-11.83-1.08-17.78c-.41-2.81.74-5.77-.71-8.5Q66.45,348.4,65.59,342.08Z"/><path class="cls-108" d="M67.31,354.73c2.82,4.82,1.75,10.34,2.14,15.43.42,5.57-.61,10.71,6.24,13.26,2.59,1,2.15,3.84.23,6a19.62,19.62,0,0,1-7.16,4.77l-1.61-1.56Q67.22,373.67,67.31,354.73Z"/><path class="cls-109" d="M97.32,307.57,86,308.81c-2.3-2-5.13-1.38-7.79-1.6-.4-2.14,1-3,2.64-3.66,12.52.59,24.34-2.46,35.84-7,3-1.22,6.09,1.93,9.08-.15l3,1.37C118.92,302.93,108.76,307.31,97.32,307.57Z"/><path class="cls-110" d="M125.81,296.36c-14.26,5.6-28.62,10.76-44.36,9.34-.47-3.66,2.28-4.27,4.8-5,6.31-1.81,12.55-3.89,19.06-4.95,1.69-.47,3.26.13,4.85.57l10.68-3.19C121.56,295.66,123.58,296.17,125.81,296.36Z"/><path class="cls-111" d="M86.2,309c-1.35,8.66-9.1,10.36-15.28,12.68-4.4,1.66-7.2,3.48-8.46,7.81-2.2-1.72-4.32.11-6.88.29.8-2.84,1.54-5.43,2.29-8C66.68,316.06,75.5,310.41,86.2,309Z"/><path class="cls-7" d="M225,193.51q4-7.09,8-14.17c2-1.14,3.69-2.93,6.18-3,2.27-.06,5,.67,3.55,3.28-4.68,8.18-.56,16.75-1.86,25a44.65,44.65,0,0,1-2.33-4.83c-3-8.59-5.28-9.39-13.45-4.67-.52-.34-.7-.69-.55-1.06S224.87,193.51,225,193.51Z"/><path class="cls-112" d="M312.43,294.47c2.35-4.76,4.88-1,6.52.32,4.23,3.36,8,7.29,12,11,3.1,2,6.54-.9,9.67.65,2.21.12,4.07,1.53,6.26,1.75,1.39.37,2.84.48,4.22.9a41.33,41.33,0,0,0,10.42,5.42c2.45.55,4.58,1.91,6.92,2.74,2.39,1,3.57,3.51,5.89,4.6a5.21,5.21,0,0,1,.88,3.06c1.15,1.85,2.94,3.54,1.57,6-5.26,2.87-8.73-2.89-13.42-2.79-4.71-4.74-6.68.71-9.6,2.61-4.83,1-6.08-4-9-5.44,1.6,1.34,3.67,2.77,3.89,5.56,0,2.48-1.73,4.1-3,5.95-1.59,1.46-2.7,3.61-5.28,3.62s-5.08-.89-4.67-3.78c1.11-7.82-2.53-14.44-4.74-21.44.18-6.45-7.87-6.09-9.29-11.22L317,299.15c-2.14.07-3.2-.95-3.15-3.1Z"/><path class="cls-113" d="M321.65,304c4.09,2.92,11.29,3.26,9.29,11.22-2.12-4.16-8.75-3.84-9.41-9.46Z"/><path class="cls-114" d="M315.49,303.9c-.16,1.46,0,3.41-1.68,3.79-1.86.41-2.5-1.57-2.78-2.9a51.79,51.79,0,0,1-.6-6.72C315.31,297.23,315.07,300.85,315.49,303.9Z"/><path class="cls-115" d="M315.49,303.9c-1.69-1.94-2.41-4.72-5.06-5.83l3.38-2,3.15,3.1C316.8,300.83,316.9,302.6,315.49,303.9Z"/><path class="cls-116" d="M340.35,340.45a6.77,6.77,0,0,1,3.24-4.74c5.46-1.56,5.37,2.06,5,5.59-.26,2.5-2.61,4.41-2.35,7.15-.38,4.93-1,9.74-6,12.49-2.21-2.89-1-6.34-1.57-9.51Q339.52,345.94,340.35,340.45Z"/><path class="cls-117" d="M340.26,360.94c.53-4.36,1-8.72,3.05-12.72,4.72-3.18,6.09-7.93,6.22-13.26.92-1.61,1.35-3.6,3.36-4.35.58-2.6,2.73,3.9,3.24-.62.48-4.24,2.91-5.83,7-3.74,7.64,7.24,6.89,13.7-2,17.41-4.37,0-6,2.67-6.44,6.5-2.17,9.23-6.28,17.75-9.67,26.54C338.3,373,341.1,366.42,340.26,360.94Z"/><path class="cls-93" d="M361.16,343.66c6.37-5.34,2.95-11.42,1.31-17.36a1.16,1.16,0,0,1,1.86-.16c5.48-1.86,8.65,2.27,12.43,4.8l3.16.57c-1.94,1.34-3.28,3-3.19,5.53-4.35,3.33-6.11,8.44-8.84,12.88-.8,1.29-1.5,3.12-3.49,2.41s-1.92-2.54-.75-3.79C367.62,344.34,360.45,346,361.16,343.66Z"/><path class="cls-118" d="M358.24,365.73c-.74-1.3-1-1.58-1-1.7,1.37-2.83,0-7,3.89-8.53.49-.2,1.83.32,1.91.7C364,360.41,360.74,362.42,358.24,365.73Z"/><path class="cls-11" d="M225,193.51c0,.54.05,1.08.08,1.62-3.85,3.73-10.35,5.47-9.52,12.71l.07-.07c-.74.33-1.87.49-2.15-.07-3.15-6.39-9.92-7.66-15.22-11-4.58-1-9.18-1.95-13.74-3-5.22-1.27-8.9-4.17-9.68-9.86.55-1,1.11-2.06,1.67-3.09,6.45,2.16,11.18,7.52,18.55,8.53,5.13.71,9.94,1.92,15.14.68,3-.71,6.23-1.39,8.43,1.9C219.9,195.72,222.43,194.76,225,193.51Z"/><path class="cls-119" d="M242.8,368.74c-.56,1.91.39,4.42-2,5.6-1.17.59-2.1-.28-2.38-1.33-.78-2.94-1-5.8,2.53-7.29Z"/><path class="cls-29" d="M363.81,368.5c5.08-5.05,8.69-11.18,12.61-17.08,1.36,1,4.11,1.6,3.17,3.75-3.64,8.28-4.78,17.66-10.82,24.88l-4.7-3.29C364.28,374,366.61,371.17,363.81,368.5Z"/><path class="cls-120" d="M390.75,470.25c-1.3,7-6.71,8.62-12.56,9-7.21.46-14.46.35-21.69.49-2.59-1.55-7.57,2.58-8.25-3.49l9.87-7.53,5.71,1.79c6.31-.87,12.73-.1,19-1.82C385.36,468,388.52,467.77,390.75,470.25Z"/><path class="cls-121" d="M390.75,470.25c-5.83-.75-11.45.63-17.12,1.6-3.35.57-6.8,1-9.8-1.36l2.06-2.1c9.56,1.58,19.06-4,28.63-.23Z"/><path class="cls-7" d="M195.08,151c-7.23.43-14.45.89-21.67,1.28-3.89.22-6.95,2.32-3.57,5.51,4.55,4.29,2.95,8.93,3.11,13.63-4.29-2.69-6.16-6.65-6.24-11.61,0-2.55.15-5.16-1.54-7.37l-8-4.35c-2.48-5-1.52-9.75,1.18-14.35a61.51,61.51,0,0,1,13-9.67c4-2.27,8.14-4,12.35-.87a10.72,10.72,0,0,1,4.49,11.58,17.63,17.63,0,0,0-.18,3.09c-.64,3.92.83,6,5,5.88a41,41,0,0,1,4.7.05c3.2.26,7.89-.87,7.63,4.2s-4.93,3.35-8.08,3.65A3.28,3.28,0,0,1,195.08,151Z"/><path class="cls-122" d="M131.93,75a9.08,9.08,0,0,0,.91-1.28c1.06-2.3,1.53-6.24,4.58-5.38s4.06,4.43,3.34,7.8c-1.08,5,.65,9.21,3.78,13,5.42,4.27,5.82,10.5,6.68,16.64.47,3.44-2.31,8.91,1.53,9.93,4.9,1.3,10.88,1.12,15.47-2.89,3.21-2.8,6.57-5.2,11.22-3.58a4.11,4.11,0,0,1,1.26,2.09c-.45,7.77-6.31,10.62-12.2,13.45-3.49-.12-6.36.56-8.91,3.58-3.76,4.45-8.66,5.46-14,2.24-4.12-9.1-2.41-19.42-5.94-28.64-1.94-5.26-3.14-10.68-7.22-15.17C129.64,83.72,131,79,131.87,75Z"/><path class="cls-123" d="M145.64,130.65c8.49-.08,13.7-9.18,22.56-8.25.69,6.24-6,8-7.75,12.73-1,4.34-.76,9-3.33,13C146.26,146.92,147.5,137.76,145.64,130.65Z"/><path class="cls-124" d="M131.87,75c-2.45,6.84,4.53,10.12,6.06,15.58A38.1,38.1,0,0,1,139.7,102c-2.84-3-4.88-6.6-7.11-12.11l-1.2,8.83C127.26,96.38,127.5,88.35,131.87,75Z"/><path class="cls-125" d="M147.75,86.07c-2.16-4.53.55-8.44,1.62-12.55-.57-1.48.12-1.87,1.46-1.7,1.21-2.27,2.34-4.6,3.67-6.8,1.22-2,3.1-5.08,4.92-4.54,6.77,2,8.24-1.36,9.07-7,.58-3.88,4.81,1.09,6.26-1.87a3.55,3.55,0,0,1,4.54-2.38c1.41,4.76,4.55,7.58,9.52,7.72,2.89.08,6.86,1.53,6.92-4,0-1.89,2.16-2.74,4.05-3.1a113.44,113.44,0,0,1,14.63-2.94,4.15,4.15,0,0,1,2,1.23,4.42,4.42,0,0,1,.53,2.31c-4.48,8.7-12.23,12.73-21.39,13.43C181.36,65,177,75.8,172.05,86.11c-1.22,2.52-1.38,5.6-3.65,7.63-2.44,2.19-5.33,4-8.45,2-3.33-2.21-3.87-5.41-1.17-8.73,5.11-1.09,2.9-6.76,5.73-9.36.53-.48,1,.32.51-.63-.12-.27.26,0-.36.48-2.79,2.21-1.15,6.88-4.81,8.56-2.11.38-3.5,2.16-5.35,2.87C151.62,90,148.43,90.76,147.75,86.07Z"/><path class="cls-126" d="M214.3,48c-5-.47-9.27,4.49-14.52,1.85,1-1.18,2-2.37,3-3.55v0a30.92,30.92,0,0,0,3.83.2c1.92-.12,4.61.58,4.78-2.41.15-2.55-2-2.2-3.82-2.31-1.66-.1-1.26-1.9-1.44-3.09l6.39-3.15c5.18-1.91,7.12,1.37,8,5.44C221.59,45.85,217.88,47,214.3,48Z"/><path class="cls-127" d="M150.83,71.82l-1.47,1.7c-2.12-.36-7.42,3.47-4.58-3.45,2.53-6.16,0-8.11-6.25-8l6.64-2.46,7.18,2.61A9.37,9.37,0,0,0,150.83,71.82Z"/><path class="cls-128" d="M160.52,45.34c1.8-3,3.16-6.71,7.92-4.86C167.53,49.13,167,49.45,160.52,45.34Z"/><path class="cls-129" d="M202.82,46.3,192.6,47.79c2.92-3.07,5.11-7.34,10-5.41,2.18.87.67,2.59.26,3.95Z"/><path class="cls-130" d="M179.29,49.26l-4.55,2.37c-5.9-3.46,1.76-3.38,1.58-5.61-.11-1.33,2-2.92,3.42-2C182.24,45.65,178.75,47.4,179.29,49.26Z"/><path class="cls-14" d="M214.3,48c5.54-5,5.23-9.18-1.73-12.43-4.85-5-.55-5.52,3.1-6.37,3.09-1,6.2-2.78,9.2.22,2,1.76,1.92,5,4.32,6.49a9.23,9.23,0,0,0,5.21,2.39c1.65.78,3.4,1.41,4.26,3.22-.83,4.53.05,10.12-7.14,10.52-1.91.11-.29,2-.55,3.07-.88,3.5-2.27,5.87-6.44,4.26-1.3-.8-2-2.16-3-3.23-1.68-2.76-2.86-5.88-5.82-7.67C215.23,48.3,214.77,48.15,214.3,48Z"/><path class="cls-131" d="M223.46,30.78c-2-.88-3.63-1.1-5.66.41-2.78,2.07-1.71-1-2.13-2,1-2.22,2.06-4.46-.65-6.28-2.39-1.62-4.77-1.54-7.45-.39-3.84,1.65-7.24,5.6-12.93,2.73C199,21.51,197.81,15,203,11.94l6.35-.06,7.9-3c6,2.14,3.41,7.19,3.89,11.2,1.47,1.53,3.9,1.31,5.27,3a5.44,5.44,0,0,1,.74,4.63A4.16,4.16,0,0,1,223.46,30.78Z"/><path class="cls-132" d="M223.68,54.85c1.37.34,1.56,1.45,1.68,2.6,1,2.92,2.86,2.5,5.51,2.28,6.57-.57,12.57,1.3,17.08,6.58a4,4,0,0,1-.6,2.14c-1.66,1.62-3.78,2.75-5.11,4.76-1.09,1.65-2.17,4,.28,4.42,4.53.86,7,5.19,11.47,5.84,1.42,0,2.83-.46,4.26-.15,6.17,1.15,12.07.73,17.38-3,1.76-1.38,3.45-2.89,5.9-2.8,6.42-.34,11.81,1,15,7.52,2.48,5,5.88,3.52,8.48,0s5.38-6.39,10.09-6.46c1.9-1.4,3.62-3.2,5.73-4.09,3.31-1.39,5.79-.68,5.2,3.78,6.47,14.74,4.52,28.95-2.49,42.95-2.67,5.34-7.15,9.11-11.2,13.11-4.25,4.2-11.11,1.34-13.61-5.25-2-5.17-1.81-10.82-3.45-16.83-7.4,5.49-14,3-20.94-1.29-9.32-5.76-20-7.45-30.68-9.1-11.52-1.78-23-.39-34.52-.73a50.35,50.35,0,0,1-7.86-.36c-10-1.81-11.53-1.14-16.66,7.26-1.42,1.59-2.91,3-5.28,1.81-7.49,5.56-15.36,10.11-24.92,11.36-4.55.6-8.72-1.08-7.61-5,2.73-9.59-2.07-18-2.28-27l3.21-3.12c4.59,3.32,8-3.24,12.45-1.44a1.83,1.83,0,0,1-.07,3c-1,2.67-1.22,5.86,2.07,6.05,2.65.16,5.9-2.28,5.78-5.43-.35-9.28,7.2-14.19,11.17-21,3-5.2,9-6.38,15-6.81,8.46-.62,15-5.69,21.46-10.66,2.46-1.74,3.61-.07,4.76,1.78C221.25,52.88,220.84,55.49,223.68,54.85Z"/><path class="cls-98" d="M182.42,106.66c4-9.06,8.93-11.76,17.43-9.2,7.26,2.19,14.78,2,21.93,1,15.52-2.12,30.22.51,45,4.66,5.28,1.49,9.3,4.77,13.89,7.24,4.84,2.61,9.4,3.62,12.63-2.61.78-1.49.45-5.14,3.73-3.72a5.37,5.37,0,0,1,3.28,6.51c-1.55,5.64.39,11,1.5,16.29,1.54,7.37,5.46,8.33,11.11,3.34a43.86,43.86,0,0,0,12.64-47.51,4.34,4.34,0,0,1,.48-4.42c7.13,9.92,5.87,20.59,2.81,31.42,1.74,3-.64,5.89-.33,8.86a46.31,46.31,0,0,1-7.21,13.63,14,14,0,0,0-2.73,8.64,15.27,15.27,0,0,1-5.69,8.9c-.74.27-1.78.61-2.26.13-4.33-4.36-7.42-5.78-9.1,2.24-.69,3.33-4.36,3.08-7.39,2.26-4.76-1.29-9.15-4.16-14.41-3.41-3.18-.15-6.23-1.08-9.38-1.22-6.39-.29-10.61-3.45-11.31-9.84-.64-5.92,3.08-9.1,8.44-10.59a7.84,7.84,0,0,1,2.46.21,32.3,32.3,0,0,1,3.84.79c1.64.41,3.23.31,4.26-1.14,1.16-1.62-.08-2.92-.91-4.24-1.74-2.72-3.87-5.34-7.06-5.93-15.57-2.9-29.07-12.7-45.31-13.48-2.83-.13-5.44-.6-8.4,0-4.58.9-9.37,1-13.75-1.65-6-3.67-11.39-2.86-15.75,2.93C185.36,107.53,183.88,107.76,182.42,106.66Z"/><path class="cls-133" d="M315.11,78.57c-3.33,4-6.45,8.14-10,11.86-3.88,4-8.85,4-10.56-1.32-2.19-6.83-7.05-8.17-12.66-9.39-1.46-2.16-.34-4.38-.19-6.58a4,4,0,0,0-1.32-3.28c-5.22-.86-9.57,5.52-15.11,1.79-1.72-1.6-1.66-3.37-.55-5.25,4.73-6.18,12.77-5.16,18.76-8.6,2.23-3.47,4.39-5.77,8.1-1.2,1.52,1.87,4.19,2.82,6.33,4.19,3.3,2.54,2.67,6.9,4.7,10,3.75,1.44,7.16-1.54,10.8-.73,1.76-.29,4.32-.94,1.74,2.06C313.06,74.47,311.49,76.4,315.11,78.57Z"/><path class="cls-2" d="M297.93,76.49l-.06-15.7c-1.06-4.37-1.95-8.73,1.37-12.63,3.15,1.26,6.15-2,9.33-.33l1.53,1.62c-.88,4.14-1,8.55-5.06,11.65,3.84,1.28,5.11-4.94,8.69-1.78,1.26,3.74-2.51,5.28-3.5,8a12,12,0,0,0,.3,1.47C308.13,74.35,301.42,72.78,297.93,76.49Z"/><path class="cls-134" d="M334.18,98.77c2.68,8.59.12,14.78-7.86,19-.77-3.19,1-5.58,2.53-8C332.62,107,333.66,103,334.18,98.77Z"/><path class="cls-135" d="M310.23,67.36c-1-3.63,2.44-5.31,3.5-8,1.16-.51,2.42-1.38,3.57-.34a2.24,2.24,0,0,1-.21,3.45C315,64.33,313.11,66.55,310.23,67.36Z"/><path class="cls-135" d="M297.93,76.49c2.43-5.47,9.22-3.75,12.6-7.66L313.37,70C308.92,73.87,303.26,74.77,297.93,76.49Z"/><path class="cls-136" d="M283.44,57.8c1.29,3.39-1.8,3.18-3.41,3.91-4.48,2-9.06,3.86-13.6,5.77-5.13,3.64-10.91,1.53-11.65-4.39-.3-2.39,1.61-3.41,3.37-4.75,4.78-3.64,10.93-4.79,15.36-8.79A4.43,4.43,0,0,0,272,47.48a9.67,9.67,0,0,1-2.8-4.37c2.1-5.17-3.73-3.46-5-5.74-1.24-5.77,4.28-4.62,6.75-6.61L273.78,29c3.57.41,6.94,1.63,10.39,2.52,2.75.61,4.93-1.48,7.44-1.65,3.95-.27,7,.69,4.63,5.73l.05-.08c-.72,1.4-4,.46-3.1,3.35-2.29,8.52-10.83,11.23-15.88,17.46C278.77,58.59,281.35,57.33,283.44,57.8Z"/><path class="cls-137" d="M296.24,35.64c-.33-3.76-2.05-4.14-5.18-2.48-2.32,1.23-4.81,3.6-7.63.71-1.54-1.84-4.5-2.36-4.91-5.27a5.76,5.76,0,0,1,.22-2.18A5.32,5.32,0,0,1,280,24.65c1.75-1.06,4.17-1.08,5.17-3.31,5.63-2.36,8.44,3.42,12.89,4.47-.12,1.06.42,1.58,1.42,1.73C304.43,32.65,303.88,35.55,296.24,35.64Z"/><path class="cls-138" d="M308.57,47.83c-3,3.8-6,7.58-9.33.33l4.8-4.81c1.65-1,3.28-1.43,4.89.07Z"/><path class="cls-137" d="M275.31,12.22l1.85-.36c.4,3.74,5.49,5,4.85,9.33,1.38,2.17-.16,3.43-1.49,4.76l-.48.37c-2.48.23-2.21-1.82-2.69-3.26l-.42-.56C277,19,271.26,16.37,275.31,12.22Z"/><path class="cls-139" d="M308.93,43.42,304,43.35l4.59-8.8C310.11,37.63,311.15,40.53,308.93,43.42Z"/><path class="cls-135" d="M293.19,38.91c-3.18.52-6,3-10.55,1.77,4.71-3,9.21-4,13.65-5.12C295.93,37.3,294.55,38.09,293.19,38.91Z"/><path class="cls-140" d="M299.45,27.54c-.48,1.24.33,3.61-2,3.25-1.26-.2-3.16-1.66-3.27-2.71-.3-2.66,2.29-1.87,3.83-2.27Z"/><path class="cls-141" d="M280.52,26c.5-1.58,1-3.17,1.49-4.76l3.13.15C287.55,26.83,283.75,26.1,280.52,26Z"/><path class="cls-142" d="M239.19,21.23c-.23,1.67-3.95,1.35-2.43,3.81,1,1.63,2.64.83,4,0s2.8-1.6,3.18,1c1,2.91,1.4,6,3.17,8.62l5.38,1.16c4.19,1.79,2,4.54.57,6.5a52.51,52.51,0,0,0-5.84,9c-.33,2.22-1,4.24-3.38,5-6.67-1.44-9.16-5.49-6.5-11.15.76-1.62,2.35-2.76.64-4.59-1.73-2.12-.49-5.63-3.43-7.16-1.72-1.19-3-2.85-4.57-4.2-2.06-2.31-2.62-5.16-3-8.09a4.34,4.34,0,0,1,2.53-3.52A5.89,5.89,0,0,1,231.7,17C234.52,17.81,238,17.53,239.19,21.23Z"/><path class="cls-125" d="M244,51.39c.35-6.55,7.19-9.59,8.47-15.64l2.63-1.8c.93-7.35,2.8-8.5,9.51-5.84a13.28,13.28,0,0,1,4.81,2.58c.5,0,1,.07,1.5.07-.47,3.79-5.11,3.35-6.41,6.29-4.4,3.52-6.55,8.25-7.35,13.7a5.17,5.17,0,0,1-3.31,2.82C250,55.68,246.9,53.9,244,51.39Z"/><path class="cls-143" d="M261.71,10.48a7.45,7.45,0,0,0,1.33-.17,11.93,11.93,0,0,1,8,2.43c1.12,2.33,2.67,4.79-1.68,5.44-6.71,1.93-13.3,3.1-18.77-2.93a5.74,5.74,0,0,1,4.28-5.2C257.18,9.61,259.32,12,261.71,10.48Z"/><path class="cls-136" d="M269.43,30.69c-3.34-.3-8.27,8.26-9.79-1.82-3.56-.07-.95,5.26-4.53,5.08-3.35-3.8-2.32-6.4,2.21-8,1-.34,2.15-.17,3-.65C266.57,21.74,270.24,22.37,269.43,30.69Z"/><path class="cls-17" d="M239.19,21.23a9.24,9.24,0,0,1-7.71-3.05c0-1.94,2.31-2,2.89-3.52.93-3.49,4.32-2.13,6.45-3.27C247.74,15.9,243.33,18.54,239.19,21.23Z"/><path class="cls-144" d="M269.35,18.18c2.5-1.38.42-3,.29-4.57,1.08-1.55,2.21-3,4.36-1.6.43.09.87.16,1.31.21-.36,3.57,5.52,6.15,1.62,10.28Z"/><path class="cls-145" d="M255.33,12.15l-4.75,3.1c-1.29-4.41-5.66-10.55,4.72-8.41a10.33,10.33,0,0,0,1.31.39C258.68,9.52,256.41,10.68,255.33,12.15Z"/><path class="cls-146" d="M247.11,34.59c-9.73.32-3.89-5.09-3.17-8.62C250.9,26.67,247.48,31.19,247.11,34.59Z"/><path class="cls-147" d="M280.18,27.89c.48,1.47,1.16,2.64,3,2.9,4,.58,1.07,2,.29,3.08C278.86,35,276,32.63,273.79,29c.21-.36.42-.72.61-1.09C276.31,26.49,278.23,25.6,280.18,27.89Z"/><path class="cls-136" d="M280.18,27.89,274.4,28c-1.81-3.32,1.42-3.59,3-4.89l2.7,3.26A4.87,4.87,0,0,1,280.18,27.89Z"/><path class="cls-148" d="M234.37,14.66a5,5,0,0,1-2.89,3.52h-1.62c-2.69,2.35-5.59,4.08-9.38,3.27-2.57-.28-5.14-.53-7.8-2.66,3.61-2.38,9.95-3.87,4.52-9.9l4.84,1.3C224.38,16.55,228.94,16.8,234.37,14.66Z"/><path class="cls-137" d="M274,12l-4.36,1.6-6.6-3.3L275.7,7.16C275.13,8.77,274.57,10.39,274,12Z"/><path class="cls-76" d="M255.33,12.15q.64-2.46,1.28-4.92l5-3.06c.54,2.09-4.37,4.27.09,6.31Z"/><path class="cls-12" d="M383.09,369l-1.86,6.45-5.73,1.82A27.17,27.17,0,0,1,383.09,369Z"/><path class="cls-14" d="M198.3,196.7a6.71,6.71,0,0,0,.78,0c8.88-1.31,15.9.14,16.59,11.09,2.9,12.6,1.86,13.92-11.1,14.12,3.68-4.14,3.52-8.24.49-12.82C202.47,205.17,200.53,200.84,198.3,196.7Z"/><path class="cls-149" d="M160.45,135.13c.94-5.25,5.29-8.41,7.75-12.73,3.41-4,8.54-6.18,11.24-10.89,5.27-5,11.44-4.91,17.6-2.55a124.83,124.83,0,0,0,32.82,7.6c6.53.64,13,1.63,18.7,5.3,2.41,1.55,5,1.08,7.55,0,4-.6,7.44.4,9.22,4.24,2,4.36-2,5.89-4.39,8a11,11,0,0,0-3.58,5.95,10.5,10.5,0,0,1-6.19,7.59c-5.45,2.51-8.14,6.84-8.69,12.67-2.62,1.23-5.24,2.2-7.84,0-4.37-5.17-3.93-11.11-2.73-17.15,1.25-6.27-1.13-9.61-7.66-9.73a289.11,289.11,0,0,0-30.4,5c-2.76-.2-5.56,1.73-8.28-.2-.32-13.85-3.6-16-15.73-10C166.41,129.93,163.57,132.79,160.45,135.13Z"/><path class="cls-150" d="M226.88,174.58c-1.22,3.85-1.91,7.92-4.7,11.11-10.67,4.66-21.32,9.38-31.27-1.54a7.67,7.67,0,0,0-4.9-2.28c-5.49-.48-8.33-3.65-9.6-8.68-1-18.2,0-19.29,17.85-19.2,2.35,0,4.71-.06,7,.17,2.74.27,6.67-.16,6.7,3.63,0,3.48-3.62,3.87-6.53,4.2-2.7,3.32-6.49,2.52-10.13,2.44,3.5,6.25,15.33,10.44,23.81,8.55C219.2,172.48,223.82,167.84,226.88,174.58Z"/><path class="cls-151" d="M185.57,138.22l6.45-3.09c7.64,8.76,22.67,8.44,29.35-.64a42.39,42.39,0,0,1,3.64-4.05c10.05.29,13,4,10.53,13.64-1.39,5.41-.69,10.83-.9,16.24-9.25-7.15-19.83-8.94-31.18-7.9-2.84.26-5.81.35-8.38-1.41,2.75-.82,7.85,1.06,7.75-2.71s-5-1.72-7.85-2.1c-2-.28-4.12,0-6.18-.1s-4.39.26-5.49-2C182,141.53,183.66,139.75,185.57,138.22Z"/><path class="cls-152" d="M242.48,160.36c-.5-6,1.94-10.52,6.48-14.34,5.42-4.57,7.34-11.83,13.81-16.28,3.54-2.42-2.47-5.08-6.06-5.7,3.07-4.25,7.85-5.24,12-2,3.52,2.8,5.88,6.19.68,9.84-4.32.36-7.9,1.75-7.23,7,.6,4.67,3.09,7.34,8.34,7.33,3.84,0,7.69,1,11.53,1.52,2.22,1.51,5.08,2.69,3.15,6.28a55.54,55.54,0,0,0-12.45,1.06c-4.09,1-8.3,1-12.27-.89C249.32,148.9,247.58,149.5,242.48,160.36Z"/><path class="cls-15" d="M282,196.69c.69-1.42,1.47-2.8,2.07-4.25,4.34-10.35,2.08-13.54-9.14-12.48-2.88.27-5.17-.11-7.14-2.19,5,0,9.94,0,14.88-1.22,3.32-.8,6.79-.76,9.8,1.53,1.63,1.25,3.33,3.06,5.52,1.14s2.36-4.32,1.87-7.18c-1-6-7.52-7-10.23-11.42,9.55-3.85,15-.9,14.3,8.71C302.35,190.57,299.56,194.29,282,196.69Z"/><path class="cls-153" d="M176.41,173.19c2.84,2.81,5.89,5.07,10.22,4.92,1.24-.05,3.07.24,3.68,1.07,8.71,11.82,21,5.8,31.87,6.51l-3.51,6.12c-9.26,2.43-18.49,2-27.85.27-7-1.28-12.26-4.13-14.27-11.38C176.5,178.2,176.46,175.69,176.41,173.19Z"/><path class="cls-152" d="M214.07,174.57c-9.38,1.19-18.45,1.2-26.13-5.69-2.24-2-4.62-3.88-3.11-7.18,1.66-3.64,4.69-2.18,7.47-1.53,3,.7,6.11,1.22,9.17,1.82-.69,6.78,2.18,9.27,12.57,10.92.53.36.72.72.55,1.1S214.25,174.57,214.07,174.57Z"/><path class="cls-123" d="M285.14,154.05,282,147.77a30,30,0,0,1,5.32,1.18c5.73,2.37,13.44,10.32,11.95-5-.26-2.73,3.5-3.63,6-4.25,2.67-.67,3.54,1.67,4.35,3.59s1.4,3.92,2.09,5.88c-.27,2.63-2.13,5.11-.73,7.89-5.07-3.17-10.57-1.48-15.92-1.41C291.64,155.64,288.26,155.69,285.14,154.05Z"/><path class="cls-154" d="M214.07,174.57l0-1.66c3.55-1.82,6.51-4,7.37-8.36.46-2.31.56-5.77,4.47-5,3.39.7,5.32,2.93,5.5,6.6a8.52,8.52,0,0,1-4.51,8.4A14.31,14.31,0,0,0,214.07,174.57Z"/><path class="cls-106" d="M83,337.34c-3.73-1.47-8.47-.63-11-4.84a20.26,20.26,0,0,0,8.3-3.4c2.57-1.72,4.82-1.39,5.61,2.14C81.34,331.53,82.7,334.68,83,337.34Z"/><path class="cls-155" d="M364.33,326.14l-1.86.16c-7,1.2-3.24,8.76-7,12-.76-2.53-1.5-5-2.23-7.4a.93.93,0,0,1-.5-1.28,9,9,0,0,1,1-1.22c2.89-2.58-2.11-8.31,2.67-9.08C359.85,318.77,361.29,324.16,364.33,326.14Z"/><path class="cls-156" d="M351.34,336.07c.26,6,.62,12.06-8,12.15,1-2.9,1.93-5.83,3.08-8.68s-.38-3.64-2.8-3.83l3.4-5C351,330.43,351.45,333,351.34,336.07Z"/><path class="cls-157" d="M351.34,336.07c-1.55-1.72-1.91-4.39-4.35-5.39-2.51-3.46-6.74-5.47-8.93-10.53a32.08,32.08,0,0,1,14.66,9.47,12.55,12.55,0,0,0,.5,1.28C353.11,332.82,352.86,334.67,351.34,336.07Z"/><path class="cls-123" d="M269.35,131.92c1-8.46-3.14-11-12.64-7.88-2.66,1.32-5.65,2.37-8.31,1-9.6-5-20.22-4.44-30.45-6.12a77.35,77.35,0,0,1-19.55-5.57c-6.08-2.75-12.37-4.15-19-1.81l-.09-1.68,3.07-3.17,3.22-1.63c5.59-3.69,11.14-4.31,17.75-1.89,9.85,3.6,20.65,1,30.83,3.42,2.53.59,5.37.34,7.29,2.34,6.46,6.72,14.65,8.65,23.53,8.84a12.14,12.14,0,0,1,9.08,4c3.66,4.09,2.37,8-3.19,10.26Z"/><path class="cls-7" d="M160.13,87.6c0-1,.05-2,.07-3,2.33-6.46,4.44-13,9.85-19.29C171,70,170,73.06,168,75.7s-3.69,4.43-2.07,8.76C168,90.05,163.76,89.5,160.13,87.6Z"/><path class="cls-158" d="M223.68,54.85c-.43,1.53.53,3.66-2.06,4.48-2.36-2.94-.69-8.52-6-9.56,0-.44,0-.87,0-1.3C220.77,47.56,222.75,50.55,223.68,54.85Z"/><path class="cls-158" d="M239.45,40.4c1.37-.4,2.47-3.8,4.1-.76a4.17,4.17,0,0,1-1.36,5.51c-3.23,2.38-2.3,6.91,1.86,9.42,3.79.74,4.42,5.59,8.42,6.33,1.54.28,2.06,2.41,1.16,3.95-1.44,2.43-3.41,4-6.41,2.29-5.37-2.66-11.16-4.44-17-4.2-4.83.19-5.18-1.93-4.82-5.49,2.93,1.07,2.85-1,2.92-2.84.1-2.54-2.22-4.75-.81-8,7.3,6.67,7.65-1.24,10.23-4.78C237.56,40.47,237.87,39.66,239.45,40.4Z"/><path class="cls-75" d="M231.67,27.74l6.43,1.67c.28,4.62.32,9.13-5.35,10.82-1,.64-2.31,2-2.95,1.77-2.05-.82-1.06-3-1.41-4.67-1.81-3.16-1.68-6.06,1.12-8.61A5.58,5.58,0,0,1,231.67,27.74Z"/><path class="cls-159" d="M231.08,29.34c-.9,2.66-1.79,5.33-2.69,8-2.18.73-3.12,3.53-6.38,3.48.52-3.41,3.47-6.5,1.45-10l1.93-3C228,25.5,229.84,26.38,231.08,29.34Z"/><path class="cls-130" d="M232.75,40.23q2.69-5.41,5.35-10.82c2,3.47,1.18,7.29,1.35,11l-1.75,1.43Z"/><path class="cls-17" d="M220.48,21.44l9.38-3.27c-.5,1.08-1,2.16-1.51,3.23,0,2.44-1.27,2.58-3.07,1.59-2.14.08-2.89,2-4.34,3.39C219.37,24.79,220.74,23,220.48,21.44Z"/><path class="cls-160" d="M225.28,23l3.07-1.59c4.32.42,1.43,4.63,3.32,6.33-.19.54-.39,1.08-.59,1.61l-5.69-1.52C225.35,26.21,225.31,24.6,225.28,23Z"/><path class="cls-161" d="M247.22,67.14l5.64-4c-6.66-.19-8.82-3.52-8.81-8.56,0-1.06,0-2.12,0-3.18,2.72-1,5.41,1.85,8.14,0,3.77,1.67,8,4.12,6.85-3.58-.82-3.72.36-6.77,3.7-8.41,4-2,5.93,1.5,8.13,3.9,1.95.27,2.39,1.31,1.56,3,1,2,4.89.16,4.79,3.61-3.59,7.28-12.6,5.55-17.57,10.58a19.77,19.77,0,0,1-3.34,2.14c3.54,2.41,6.54-1.18,9.76.42-.88,3.51-5.73,1.37-6.45,5.16,2.5,2.15,4.54-1.83,6.85-.8a2,2,0,0,0-.21,2.86,2,2,0,0,1,.5,1.39c0,.51-.09.76-.19.76-2.73,2.22-5.82,4-8,6.86-1.4,1.82-3,3.63-5.74,2.11-1.53-1.3-1.65-3.14-1.86-4.93-.8-2.74-4.31-1.88-5.51-4.08a5.71,5.71,0,0,1,.49-5.19C246.34,67.23,246.78,67.19,247.22,67.14Z"/><path class="cls-158" d="M245.89,67.26c3.09,1.72,2.23,3.18-.29,4.53,1.23,4.47,6.18.16,8,3.36q.06,3.13.13,6.27c1.39,1.44,1.19,2.87-.05,4.29-2.19,2.21-4,1.71-5.79-.61-.91-1.2-1.84-2.65-3.11-3.27C234,76.59,232.29,75.11,245.89,67.26Z"/><path class="cls-136" d="M253.63,85.71c0-1.43,0-2.86,0-4.29,3.62-3.82,5.87-9.38,12.27-9.62,4.57.22,7.71,1.19,3.27,6.17-3.51,1.16-6.84,2.56-8.16,6.49-.86.69-2,.94-2.87,1.54Z"/><path class="cls-158" d="M258.18,86l1.73-1.51c1.87-1.81,3.34-4.26,6.46-4.11,3.05.33,6.23-.84,9.18.76a4.15,4.15,0,0,1,1.74,2A24.66,24.66,0,0,1,258.18,86Z"/><path class="cls-162" d="M277.29,83.1a11.24,11.24,0,0,1-1.51-.31c-1.53-7,1.75-10.3,9.11-9.18-1,2-2,4.07-3,6.11C279.77,80.09,278.64,81.74,277.29,83.1Z"/><path class="cls-163" d="M270.93,132c4.25-6.09,2.1-10.67-5.83-10.86-7.45-.18-14.54-.77-21-4.9-2.32-1.48-5.45-1.69-6.09-5.36-.45-2.59-3.06-2.51-5.13-2.54A165.72,165.72,0,0,1,198.81,104c-4.57-1-8.72,1.55-13.17,1.06,4.19-6.48,9.89-7.3,16.42-4.15,5.2,2.5,10.43,2,16,1.92,10-.15,20.15,1.13,29.68,5,5.72,2.34,11.37,5.19,17.34,6.5,7.46,1.64,12.72,5.93,17.53,11.26,1.54,1.71,3.68,3.51,2.32,6.14-1.15,2.2-3.64,1.74-5.69,1.76C276.41,133.51,273.45,133.87,270.93,132Z"/><path class="cls-162" d="M267.73,76.46c3.38-3.08-1-3.17-1.79-4.66.12-.49.21-1,.28-1.46,3.58-.36,7.14-.75,10-3.22,2.47-2.1,5-2,7.52-.17.71,1.49,1.14,4,.08,4.36-5.58,2.14-8.74,8.08-14.85,9.24C267.06,79.66,266.48,78.35,267.73,76.46Z"/><path class="cls-136" d="M269.31,79.79c2.74-3.71,5.27-7.68,10.61-8,3-.17,3.57-2.45,3.85-4.87a8.72,8.72,0,0,1,1.12,6.66c-4.77,1.33-7.44,4.76-9.11,9.18l-9.54.25C265.17,80,268,80.57,269.31,79.79Z"/><path class="cls-164" d="M270.83,43.35c-3.57.46-10.58-6-9.15,4.54-1.53,3-3.79,3.35-6.58,1.87,1-5.79,0-13.15,9.42-12.71l9.22-1C272.65,38.53,270.58,40.61,270.83,43.35Z"/><path class="cls-165" d="M277.18,50c-1.12-1.84-4.91-.13-4.79-3.61,2.18.44,4.49-2.36,6.34-.22C279.78,47.36,278.3,48.92,277.18,50Z"/><path class="cls-166" d="M255.1,49.76l6.58-1.87c1,0,2.65-.33,2.8,0,1.21,2.83-.66,4.65-2.18,6.86-2.66,3.87-6.33,1.81-9.26,1.69-2.49-.09.38-3.41-.89-5A3.32,3.32,0,0,0,255.1,49.76Z"/><path class="cls-13" d="M225,130.44c-.92,11.37-3.55,14-14.4,14-4.2,0-8.5.44-12.57-.34-4.45-.86-9.11-2.61-6-9C202.9,132.77,213.72,129.94,225,130.44Z"/><path class="cls-94" d="M253.55,75.15c-3,.19-5.87,2.16-9,.25-4.76-2.87.4-2.52,1.09-3.61,2.35-.1,4.71-.31,7.06-.29C257.54,71.55,254.47,73.64,253.55,75.15Z"/><path class="cls-80" d="M269.31,79.79c-1,1.08-2,2.17-3.07,3.25l-6.33,1.45c-3-8.18,3.1-7.41,7.82-8Z"/></g></g></svg>